<?xml version="1.0" encoding="utf-8"?>
<!-- Generator: Adobe Illustrator 22.1.0, SVG Export Plug-In . SVG Version: 6.00 Build 0)  -->
<svg version="1.1" id="Слой_1" xmlns="http://www.w3.org/2000/svg" xmlns:xlink="http://www.w3.org/1999/xlink" x="0px" y="0px"
	 viewBox="0 0 100 100" style="enable-background:new 0 0 100 100;" xml:space="preserve">
<style type="text/css">
	.st0{opacity:0.5;}
	.st1{fill:none;stroke:#000000;stroke-miterlimit:50;}
	.st2{fill:#343434;}
	.st3{fill:#FFFFFF;}
</style>
<g>
	<g class="st0">
		<path class="st1" d="M8.5,13L8.5,13l-2.9,1.5c-0.5,0.3-1.1,0.1-1.3-0.4c-0.1-0.2-0.1-0.4-0.1-0.6l0.6-3.2l0,0L2.4,7.9
			C2,7.6,2,6.9,2.4,6.5c0.2-0.2,0.4-0.3,0.6-0.3l3.3-0.5l0,0l1.5-2.9C7.9,2.3,8.5,2.1,9,2.4c0.2,0.1,0.4,0.3,0.5,0.5l1.5,2.9l0,0
			l3.3,0.5c0.5,0.1,0.9,0.6,0.8,1.1c0,0.2-0.1,0.4-0.3,0.6l-2.4,2.3l0,0l0.6,3.2c0.1,0.5-0.3,1.1-0.8,1.2c-0.2,0-0.4,0-0.6-0.1
			L8.5,13z"/>
	</g>
</g>
<path id="SvgjsPath1007" class="st2" d="M21.9,3.4l3.6,3.6l3.6-3.6c0.4-0.4,1.1-0.4,1.6,0c0.4,0.4,0.4,1.1,0,1.6L27,8.5l3.6,3.6
	c0.4,0.4,0.4,1.1,0,1.6c-0.4,0.4-1.1,0.4-1.6,0l-3.6-3.6l-3.6,3.6c-0.4,0.4-1.1,0.4-1.6,0c-0.4-0.4-0.4-1.1,0-1.6l3.6-3.6l-3.6-3.6
	c-0.4-0.4-0.4-1.1,0-1.6C20.8,2.9,21.5,2.9,21.9,3.4z"/>
<g>
	<g>
		<path class="st2" d="M36,9.2l0.5,0.5v0.2h0.2l4.5,4.5l1.3-1.3l-3.2-3.2h9.6V8h-9.6l3.1-3.1l-1.3-1.3L36.8,8h-0.3v0.3L36,8.8
			L36.2,9L36,9.2z"/>
	</g>
</g>
<g>
	<g>
		<path class="st3" d="M53,9.2l0.5,0.5v0.2h0.2l4.5,4.5l1.3-1.3l-3.2-3.2h9.6V8h-9.6l3.1-3.1l-1.3-1.3L53.8,8h-0.3v0.3L53,8.8
			L53.2,9L53,9.2z"/>
	</g>
</g>
</svg>
