<svg width="18" height="18" viewBox="0 0 18 18" fill="none" xmlns="http://www.w3.org/2000/svg">
<path fill-rule="evenodd" clip-rule="evenodd" d="M2.07185 11.6242C0.69061 10.2429 0 8.62182 0 6.76078C0 4.89974 0.654262 3.3077 1.96281 1.98462C3.27135 0.661532 4.85612 0 6.71716 0C8.5782 0 10.2066 0.69061 11.6024 2.07185C12.9981 3.45309 13.696 5.07421 13.696 6.93525C13.696 8.22925 13.3616 9.40693 12.6928 10.4683L16.8365 14.5684C17.2727 15.0627 17.3163 15.5134 16.9674 15.9205L15.9642 16.9238C15.4407 17.389 14.9464 17.389 14.4811 16.9238L10.3374 12.7801C9.26153 13.3907 8.12748 13.696 6.93525 13.696C5.07421 13.696 3.45309 13.0054 2.07185 11.6242ZM3.42401 3.46762C2.50803 4.38361 2.05004 5.48131 2.05004 6.76078C2.05004 8.04024 2.54437 9.1743 3.53305 10.163C4.52173 11.1517 5.65578 11.646 6.93525 11.646C8.21471 11.646 9.31242 11.188 10.2284 10.272C11.1444 9.35604 11.6024 8.25106 11.6024 6.95706C11.6024 5.66305 11.108 4.529 10.1194 3.55486C9.13068 2.58072 7.99662 2.09366 6.71716 2.09366C5.43769 2.09366 4.33999 2.55164 3.42401 3.46762Z" fill="white"/>
</svg>
