<svg xmlns="http://www.w3.org/2000/svg" viewBox="0 0 20 24">
                    <path fill="white" d="M19.88 6.81C19.76 6.39 19.57 5.98 19.32 5.62C19.08 5.27 18.79 4.95 18.44 4.73L11.56 0.41C11.32 0.27 11.07 0.16 10.81 0.09C10.54 0.03 10.28 0 10 0C9.72 0 9.46 0.03 9.19 0.09C8.93 0.16 8.68 0.27 8.44 0.41L1.56 4.73C1.32 4.88 1.12 5.07 0.93 5.28C0.66 5.61 0.43 5.98 0.27 6.39C0.1 6.8 0 7.23 0 7.66L0 16.31C0 16.6 0.05 16.89 0.13 17.17C0.24 17.6 0.43 17.99 0.68 18.35C0.92 18.71 1.21 19.02 1.56 19.24L8.44 23.56C8.68 23.71 8.93 23.81 9.19 23.88C9.46 23.94 9.72 23.97 10 23.97C10.28 23.97 10.54 23.94 10.81 23.88C11.07 23.81 11.32 23.71 11.56 23.56L18.44 19.24C18.68 19.1 18.88 18.91 19.07 18.69C19.34 18.37 19.57 17.99 19.73 17.59C19.9 17.18 20 16.75 20 16.31L20 7.66C20 7.37 19.95 7.08 19.88 6.81Z"/>
                </svg>