<svg xmlns="http://www.w3.org/2000/svg" width="15" height="15" viewBox="0 0 15 15"><g><g><path d="M0 5.582C0 4.045.54 2.73 1.62 1.638 2.7.546 4.01 0 5.546 0s2.88.57 4.033 1.71c1.152 1.14 1.728 2.48 1.728 4.016a5.36 5.36 0 0 1-.828 2.916l3.42 3.385c.361.409.397.78.109 1.117l-.828.828c-.432.384-.84.384-1.225 0l-3.42-3.421a5.606 5.606 0 0 1-2.81.756c-1.536 0-2.874-.57-4.015-1.71C.57 8.457 0 7.118 0 5.582zm1.692-.005c0 1.055.409 1.99 1.225 2.805.816.815 1.752 1.223 2.809 1.223 1.056 0 1.962-.378 2.718-1.133A3.722 3.722 0 0 0 9.58 5.739c0-1.067-.408-2.002-1.225-2.806C7.538 2.13 6.602 1.73 5.546 1.73c-1.057 0-1.963.377-2.72 1.132-.755.756-1.134 1.66-1.134 2.716z"/></g></g></svg>