<svg width="35" height="41" viewBox="0 0 35 41" fill="none" xmlns="http://www.w3.org/2000/svg">
<g id="logo copy">
<path id="Fill 25 Copy" fill-rule="evenodd" clip-rule="evenodd" d="M32.4643 27.3039C32.4645 27.5474 32.4217 27.8385 32.3341 28.1424C32.2042 28.5982 31.9735 29.0804 31.69 29.4862C31.408 29.8939 31.0717 30.2217 30.771 30.403L18.9121 37.6388C18.7129 37.7609 18.4528 37.8674 18.1601 37.9389C17.8677 38.0112 17.5435 38.0495 17.2193 38.0495C16.8949 38.0495 16.5707 38.0112 16.2783 37.9389C15.9856 37.8674 15.7258 37.7609 15.5263 37.6388L3.66719 30.403C3.46724 30.2815 3.25026 30.0969 3.04511 29.8646C2.73655 29.5177 2.45686 29.0656 2.26591 28.6032C2.07306 28.1414 1.97249 27.6695 1.97415 27.3039V12.8319C1.97368 12.5884 2.01651 12.2973 2.10429 11.9937C2.2342 11.5376 2.46491 11.0557 2.74838 10.6496C3.03044 10.2422 3.36668 9.9141 3.66719 9.73305L15.5263 2.49697C15.7258 2.37493 15.9856 2.26865 16.2783 2.19688C16.5707 2.12461 16.8949 2.08635 17.2193 2.0866C17.5435 2.08635 17.8677 2.12461 18.1601 2.19688C18.4528 2.26865 18.7129 2.37493 18.9121 2.49697L30.7712 9.73305C30.9709 9.85434 31.1882 10.0391 31.3931 10.2712C31.7019 10.6183 31.9816 11.0702 32.1723 11.5328C32.3654 11.9947 32.4659 12.4666 32.4643 12.8319V27.3039ZM34.2233 11.3878C34.0203 10.6836 33.6949 10.0101 33.2801 9.41321C32.8639 8.81779 32.3599 8.29514 31.7582 7.92603L19.8993 0.690199C19.4973 0.445378 19.0605 0.27658 18.6083 0.164797C18.1559 0.0535154 17.6876 0 17.2193 0C16.7508 0 16.2825 0.0535154 15.8301 0.164797C15.3779 0.27658 14.9409 0.445378 14.5391 0.690199L2.68 7.92603C2.27845 8.1716 1.92186 8.48694 1.60407 8.84505C1.12869 9.38295 0.739448 10.0176 0.45763 10.6956C0.177704 11.3743 0.00165636 12.0967 0 12.8319V27.3039C0.000473247 27.7943 0.080452 28.2784 0.215091 28.748C0.418114 29.4522 0.743471 30.1257 1.15827 30.7226C1.57449 31.3183 2.0785 31.8407 2.68 32.2098L14.5391 39.4459C14.9409 39.6904 15.3779 39.8595 15.8301 39.971C16.2825 40.0823 16.7508 40.1358 17.2193 40.1361C17.6876 40.1358 18.1559 40.0823 18.6083 39.971C19.0605 39.8595 19.4973 39.6904 19.8993 39.4459L31.7582 32.2098C32.1597 31.9645 32.5166 31.6489 32.8343 31.2908C33.3097 30.7531 33.699 30.1184 33.9808 29.4405C34.2607 28.7618 34.4368 28.0391 34.4384 27.3039V12.8319C34.4382 12.3418 34.358 11.8574 34.2233 11.3878Z" fill="white"/>
<path id="Fill 26" fill-rule="evenodd" clip-rule="evenodd" d="M21.9179 30.9856C21.8599 31.0139 21.8032 31.0286 21.7312 31.0289C21.6591 31.0286 21.6023 31.0139 21.5445 30.9856C21.4593 30.9443 21.3716 30.8636 21.3074 30.7543C21.2447 30.6493 21.2121 30.5245 21.2107 30.4164C21.2151 30.3959 21.2267 30.3529 21.2485 30.2972C21.2989 30.1619 21.4021 29.9601 21.5282 29.754C21.5916 29.6495 21.6612 29.5442 21.7319 29.4402C21.8886 29.6705 22.0372 29.9138 22.1335 30.1129C22.1848 30.2176 22.2208 30.3092 22.2388 30.3679C22.2461 30.3919 22.2501 30.4082 22.252 30.4182C22.2508 30.5625 22.1862 30.738 22.0838 30.8538C22.0322 30.9136 21.9749 30.9576 21.9179 30.9856ZM17.3199 21.053C17.295 21.0237 17.2711 20.9997 17.2441 20.9742L17.2446 20.9737L17.2408 20.9702C17.2183 20.9485 17.1062 20.8264 17.0193 20.6734C16.9758 20.5974 16.9379 20.5146 16.9136 20.4361C16.889 20.3568 16.8771 20.2833 16.8769 20.212C16.8769 20.1352 16.8925 20.0502 16.9259 19.9564C16.9744 19.8169 17.0669 19.6659 17.1471 19.5626C17.1869 19.5108 17.2224 19.4703 17.2444 19.447L17.2657 19.4248L17.2666 19.4235C17.2872 19.4035 17.3094 19.3803 17.3303 19.3565C17.3508 19.3803 17.3729 19.4035 17.3937 19.4235H17.3934L17.4133 19.444C17.459 19.4918 17.5704 19.6238 17.6525 19.7759C17.6942 19.8519 17.7287 19.9317 17.7507 20.0062C17.773 20.0807 17.7832 20.1487 17.7832 20.212C17.7832 20.2928 17.7675 20.3776 17.7356 20.4688C17.6892 20.6046 17.6017 20.7479 17.5262 20.8454C17.4886 20.8945 17.4554 20.932 17.4353 20.9535L17.4164 20.973L17.4169 20.9735C17.3897 20.9992 17.3653 21.0237 17.3404 21.053L17.3303 21.065L17.3199 21.053ZM17.4171 20.9732L17.4166 20.973L17.4171 20.9732ZM13.1158 30.9856C13.0578 31.0139 13.0012 31.0286 12.9291 31.0289C12.8571 31.0286 12.8003 31.0139 12.7424 30.9856C12.6572 30.9443 12.5694 30.8636 12.5053 30.7543C12.4428 30.6493 12.4099 30.5245 12.4085 30.4164C12.4132 30.3959 12.4248 30.3529 12.4464 30.2972C12.497 30.1619 12.5999 29.9601 12.726 29.754C12.7895 29.6495 12.859 29.5442 12.9298 29.4402C13.0864 29.6705 13.235 29.9138 13.3316 30.1129C13.3827 30.2176 13.4189 30.3092 13.4366 30.3679C13.4442 30.3919 13.448 30.4082 13.4499 30.4182C13.4489 30.5625 13.3843 30.738 13.2819 30.8538C13.2301 30.9136 13.1728 30.9576 13.1158 30.9856ZM12.7424 9.13157C12.8003 9.10356 12.8571 9.08881 12.9291 9.08831C13.0012 9.08881 13.0578 9.10356 13.1158 9.13157C13.2009 9.17308 13.2887 9.25385 13.3529 9.36288C13.4153 9.46817 13.4482 9.59295 13.4496 9.70098C13.4449 9.72124 13.4335 9.7645 13.4118 9.82002C13.3611 9.95556 13.2582 10.1574 13.1321 10.3634C13.0687 10.4677 12.9991 10.573 12.9286 10.6773C12.7717 10.4469 12.6231 10.2034 12.5268 10.0043C12.4755 9.89979 12.4393 9.80801 12.4215 9.74925C12.4142 9.72549 12.4104 9.70923 12.4083 9.69898C12.4094 9.55469 12.474 9.37914 12.5763 9.26361C12.6278 9.20359 12.6853 9.15983 12.7424 9.13157ZM21.5445 9.13157C21.6023 9.10356 21.6591 9.08881 21.7312 9.08831C21.8032 9.08881 21.8599 9.10356 21.9179 9.13157C22.0031 9.17308 22.0909 9.25385 22.155 9.36288C22.2175 9.46817 22.2504 9.59295 22.2516 9.70073C22.2471 9.72124 22.2355 9.7645 22.2139 9.82002C22.1633 9.95556 22.0604 10.1574 21.9342 10.3634C21.8708 10.4677 21.8013 10.573 21.7305 10.6773C21.5739 10.4469 21.4253 10.2034 21.3287 10.0043C21.2776 9.89979 21.2414 9.80801 21.2237 9.74925C21.2161 9.72549 21.2123 9.70923 21.2102 9.69898C21.2114 9.55469 21.276 9.37914 21.3784 9.26361C21.43 9.20359 21.4873 9.15983 21.5445 9.13157ZM26.1012 20.8727H23.1446C22.5994 20.8727 22.1574 21.3398 22.1574 21.916C22.1574 22.4922 22.5994 22.959 23.1446 22.959H24.0674L21.6801 26.1627L18.6594 22.6227L18.7784 22.4834C18.8697 22.3919 19.0498 22.1981 19.2401 21.902C19.3621 21.7107 19.488 21.4756 19.5872 21.1935C19.6858 20.912 19.7575 20.5796 19.7575 20.212C19.7573 19.8399 19.6832 19.5053 19.5822 19.2215C19.4293 18.7951 19.2195 18.4755 19.0477 18.2499C18.9313 18.0982 18.8338 17.9931 18.7708 17.9294L18.631 17.7571L21.678 14.0045L24.0821 17.4047H23.1446C22.5994 17.4047 22.1574 17.8718 22.1574 18.448C22.1574 19.0242 22.5994 19.4913 23.1446 19.4913H26.0522C26.4268 19.4913 26.7668 19.2695 26.9346 18.9154C27.1026 18.5615 27.0671 18.1407 26.843 17.8236L22.9908 12.3755C23.0838 12.2517 23.1827 12.1157 23.283 11.9709C23.4903 11.67 23.703 11.3347 23.8802 10.9756C23.969 10.7953 24.0492 10.6085 24.1131 10.4047C24.1755 10.2006 24.2262 9.97881 24.2274 9.71149C24.225 9.01128 23.9737 8.3606 23.5428 7.85795C23.3265 7.60688 23.0613 7.39332 22.7534 7.24127C22.4463 7.08898 22.0961 7.00146 21.7312 7.00196C21.3663 7.00146 21.0159 7.08898 20.709 7.24127C20.2469 7.47009 19.8822 7.83444 19.631 8.26107C19.3799 8.68894 19.2356 9.18633 19.2348 9.71149C19.2363 9.97881 19.2867 10.2006 19.3494 10.4049C19.4615 10.7603 19.6213 11.0714 19.7942 11.3702C20.0022 11.7261 20.2322 12.0544 20.4367 12.3292L17.3303 16.1551L14.2232 12.3287C14.3062 12.2172 14.3928 12.0984 14.4808 11.9709C14.6884 11.67 14.9008 11.3347 15.0783 10.9756C15.1668 10.7953 15.247 10.6085 15.3109 10.4047C15.3736 10.2006 15.424 9.97881 15.4254 9.71149C15.4228 9.01128 15.1718 8.3606 14.7409 7.85795C14.5244 7.60688 14.2591 7.39332 13.9513 7.24127C13.6441 7.08898 13.2939 7.00146 12.9291 7.00196C12.5642 7.00146 12.2138 7.08898 11.9069 7.24127C11.4447 7.47009 11.0801 7.83444 10.8288 8.26107C10.5777 8.68894 10.4334 9.18633 10.4329 9.71149C10.4341 9.97881 10.4845 10.2006 10.5472 10.4049C10.6596 10.7603 10.8191 11.0714 10.9921 11.3702C11.2126 11.7468 11.4563 12.0917 11.6695 12.3755L7.81729 17.8236C7.59321 18.1407 7.55771 18.5615 7.72548 18.9154C7.89348 19.2695 8.23351 19.4913 8.60808 19.4913H11.5157C12.0609 19.4913 12.5029 19.0242 12.5029 18.448C12.5029 17.8718 12.0609 17.4047 11.5157 17.4047H10.578L12.9823 14.0045L16.0293 17.7571L15.8918 17.9264C15.7977 18.0216 15.6195 18.2169 15.4316 18.5073C15.3078 18.7006 15.1796 18.9371 15.0781 19.2215C14.977 19.5053 14.9027 19.8399 14.9027 20.212C14.9027 20.5796 14.9744 20.912 15.0731 21.1935C15.2227 21.6169 15.429 21.9338 15.5984 22.1568C15.7179 22.3126 15.8187 22.4199 15.8807 22.4819L16.0009 22.6227L12.9802 26.1627L10.5929 22.959H11.5157C12.0609 22.959 12.5029 22.4922 12.5029 21.916C12.5029 21.3398 12.0609 20.8727 11.5157 20.8727H8.5591C8.18122 20.8727 7.83598 21.1013 7.67082 21.4604C7.50589 21.8195 7.5499 22.2476 7.78345 22.5614L11.6567 27.7589C11.5675 27.8785 11.4731 28.008 11.3773 28.1465C11.17 28.4474 10.957 28.7825 10.7798 29.1416C10.6913 29.3221 10.6113 29.5089 10.5475 29.7125C10.4847 29.9168 10.4341 30.1384 10.4329 30.4059C10.4353 31.1059 10.6863 31.7566 11.1172 32.2595C11.3338 32.5103 11.599 32.7241 11.9069 32.8762C12.2138 33.0282 12.5642 33.116 12.9291 33.1155C13.2939 33.116 13.6441 33.0282 13.9513 32.8762C14.4134 32.6471 14.7778 32.283 15.0293 31.8561C15.2804 31.4282 15.4245 30.9308 15.4254 30.4059C15.424 30.1386 15.3736 29.9166 15.3109 29.7122C15.1988 29.3569 15.039 29.0458 14.8658 28.7472C14.6626 28.3991 14.4378 28.0768 14.2366 27.8057L17.3303 24.1804L20.4239 27.8062C20.3448 27.913 20.263 28.0255 20.1794 28.1465C19.9722 28.4474 19.7592 28.7825 19.582 29.1416C19.4935 29.3221 19.4133 29.5089 19.3494 29.7125C19.2867 29.9168 19.2363 30.1384 19.2348 30.4059C19.2374 31.1059 19.4885 31.7566 19.9194 32.2595C20.1357 32.5103 20.4012 32.7241 20.709 32.8762C21.0159 33.0282 21.3663 33.116 21.7312 33.1155C22.0961 33.116 22.4463 33.0282 22.7534 32.8762C23.2156 32.6471 23.58 32.283 23.8315 31.8561C24.0825 31.4282 24.2267 30.9308 24.2274 30.4059C24.2262 30.1386 24.1758 29.9166 24.1131 29.7122C24.0007 29.3569 23.8412 29.0458 23.668 28.7472C23.4522 28.3781 23.2137 28.0395 23.0035 27.7589L26.8768 22.5614C27.1106 22.2476 27.1544 21.8195 26.9892 21.4604C26.8245 21.1013 26.4791 20.8727 26.1012 20.8727Z" fill="white"/>
</g>
</svg>
