<?xml version="1.0" encoding="UTF-8" standalone="no"?>
<svg width="414px" height="100px" viewBox="0 0 414 100" version="1.1" xmlns="http://www.w3.org/2000/svg" xmlns:xlink="http://www.w3.org/1999/xlink">
    <!-- Generator: Sketch 3.8.3 (29802) - http://www.bohemiancoding.com/sketch -->
    <title>icons</title>
    <desc>Created with Sketch.</desc>
    <defs></defs>
    <g id="Page-1" stroke="none" stroke-width="1" fill="none" fill-rule="evenodd">
        <g id="iPad-Pro-Portrait" transform="translate(-50.000000, -30.000000)">
            <g id="icons" transform="translate(50.000000, 30.000000)">
                <g id="big">
                    <g id="1" transform="translate(96.000000, 0.000000)">
                        <polygon id="Rectangle-1-Copy-3" fill="#464646" points="0 0 30 0 30 45 15 35 0 45"></polygon>
                        <path d="M11.528,21.17 L14.405,13.043 L14.447,13.043 L17.345,21.17 L11.528,21.17 Z M17.891,22.766 L18.878,25.475 C19.046,25.916 19.382,26.168 19.823,26.168 C20.306,26.168 20.684,25.937 20.684,25.433 C20.684,25.286 20.663,25.076 20.6,24.887 L15.707,11.93 C15.476,11.3 15.056,10.901 14.405,10.901 C13.775,10.901 13.355,11.384 13.124,11.972 L8.294,24.887 C8.252,25.013 8.168,25.286 8.168,25.391 C8.168,25.853 8.609,26.168 9.029,26.168 C9.533,26.168 9.806,25.937 9.974,25.475 L10.961,22.766 L17.891,22.766 Z" id="Ð" fill="#FFFFFF"></path>
                    </g>
                    <g id="2" transform="translate(128.000000, 0.000000)">
                        <polygon id="Rectangle-1-Copy-4" fill="#7CC64B" points="0 0 30 0 30 45 15 35 0 45"></polygon>
                        <path d="M10.029,10.901 C9.63,10.901 9.21,11.216 9.21,11.636 C9.21,11.783 9.315,12.077 9.462,12.308 L13.557,18.944 L13.557,25.139 C13.557,25.685 13.935,26.126 14.46,26.126 C15.027,26.126 15.384,25.811 15.384,25.223 L15.384,18.986 L19.437,12.371 C19.584,12.14 19.668,11.93 19.668,11.678 C19.668,11.195 19.311,10.901 18.849,10.901 C18.471,10.901 18.198,11.09 17.988,11.447 L14.46,17.138 L10.932,11.405 C10.722,11.069 10.428,10.901 10.029,10.901 L10.029,10.901 Z" id="Y" fill="#FFFFFF"></path>
                    </g>
                    <g id="3" transform="translate(160.000000, 0.000000)">
                        <polygon id="Rectangle-1-Copy-5" fill="#F64F63" points="0 0 30 0 30 45 15 35 0 45"></polygon>
                        <path d="M13.066,12.749 L17.623,12.749 C18.127,12.749 18.442,12.371 18.442,11.888 C18.442,11.426 18.148,11.027 17.665,11.027 L12.016,11.027 C11.554,11.027 11.239,11.51 11.239,12.056 L11.239,24.971 C11.239,25.475 11.407,26 12.142,26 L17.539,26 C18.085,26 18.442,25.664 18.442,25.181 C18.442,24.656 18.19,24.278 17.665,24.278 L13.066,24.278 L13.066,19.406 L17.182,19.406 C17.707,19.406 18.043,19.028 18.043,18.545 C18.043,18.041 17.728,17.684 17.224,17.684 L13.066,17.684 L13.066,12.749 Z" id="E" fill="#FFFFFF"></path>
                    </g>
                    <g id="4" transform="translate(192.000000, 0.000000)">
                        <polygon id="Rectangle-1-Copy-6" fill="#EDB42A" points="0 0 30 0 30 45 15 35 0 45"></polygon>
                        <path d="M7.596,10.901 C7.029,10.901 6.735,11.405 6.735,12.056 C6.735,12.182 6.798,12.56 6.882,13.001 L8.898,24.845 C9.045,25.685 9.633,26.126 10.284,26.126 C10.893,26.126 11.544,25.727 11.712,25.118 L14.862,14.219 L14.904,14.219 L18.033,25.013 C18.264,25.832 18.726,26.126 19.419,26.126 C20.175,26.126 20.721,25.685 20.868,24.803 L22.926,12.854 C23.01,12.392 23.031,12.161 23.031,12.014 C23.031,11.3 22.716,10.901 22.149,10.901 C21.645,10.901 21.246,11.279 21.162,11.804 L19.419,23.816 L15.807,11.636 C15.66,11.174 15.261,10.901 14.82,10.901 C14.379,10.901 14.106,11.153 13.959,11.636 L10.305,23.816 L8.583,11.72 C8.499,11.195 8.121,10.901 7.596,10.901 L7.596,10.901 Z" id="W" fill="#FFFFFF"></path>
                    </g>
                    <g id="5" transform="translate(224.000000, 0.000000)">
                        <polygon id="Rectangle-1-Copy-7" fill="#DE6FCA" points="0 0 30 0 30 45 15 35 0 45"></polygon>
                        <path d="M12.142,11.027 C11.701,11.027 11.239,11.342 11.239,12.014 L11.239,25.181 C11.239,25.643 11.533,26.126 12.142,26.126 C12.667,26.126 13.066,25.748 13.066,25.223 L13.066,20.414 L16.111,20.414 C18.631,20.414 20.689,18.377 20.689,15.71 C20.689,13.022 18.799,11.027 15.859,11.027 L12.142,11.027 Z M13.066,12.623 L15.775,12.623 C17.581,12.623 18.862,13.799 18.862,15.668 C18.862,17.495 17.518,18.818 15.691,18.818 L13.066,18.818 L13.066,12.623 Z" id="P" fill="#FFFFFF"></path>
                    </g>
                    <g id="6" transform="translate(256.000000, 0.000000)">
                        <polygon id="Rectangle-1-Copy-8" fill="#BDBDBD" points="0 0 30 0 30 45 15 35 0 45"></polygon>
                        <path d="M13.066,12.749 L17.623,12.749 C18.127,12.749 18.442,12.371 18.442,11.888 C18.442,11.426 18.148,11.027 17.665,11.027 L12.016,11.027 C11.554,11.027 11.239,11.51 11.239,12.056 L11.239,24.971 C11.239,25.475 11.407,26 12.142,26 L17.539,26 C18.085,26 18.442,25.664 18.442,25.181 C18.442,24.656 18.19,24.278 17.665,24.278 L13.066,24.278 L13.066,19.406 L17.182,19.406 C17.707,19.406 18.043,19.028 18.043,18.545 C18.043,18.041 17.728,17.684 17.224,17.684 L13.066,17.684 L13.066,12.749 Z" id="E" fill="#FFFFFF"></path>
                    </g>
                    <g id="7" transform="translate(288.000000, 0.000000)">
                        <polygon id="Rectangle-1-Copy-9" fill="#BDBDBD" points="0 0 30 0 30 45 15 35 0 45"></polygon>
                        <path d="M11.029,10.901 C10.63,10.901 10.21,11.216 10.21,11.636 C10.21,11.783 10.315,12.077 10.462,12.308 L14.557,18.944 L14.557,25.139 C14.557,25.685 14.935,26.126 15.46,26.126 C16.027,26.126 16.384,25.811 16.384,25.223 L16.384,18.986 L20.437,12.371 C20.584,12.14 20.668,11.93 20.668,11.678 C20.668,11.195 20.311,10.901 19.849,10.901 C19.471,10.901 19.198,11.09 18.988,11.447 L15.46,17.138 L11.932,11.405 C11.722,11.069 11.428,10.901 11.029,10.901 L11.029,10.901 Z" id="Y" fill="#FFFFFF"></path>
                    </g>
                    <g id="8" transform="translate(320.000000, 0.000000)">
                        <polygon id="Rectangle-1-Copy-10" fill="#BDBDBD" points="0 0 30 0 30 45 15 35 0 45"></polygon>
                        <path d="M12.142,11.027 C11.701,11.027 11.239,11.342 11.239,12.014 L11.239,25.181 C11.239,25.643 11.533,26.126 12.142,26.126 C12.667,26.126 13.066,25.748 13.066,25.223 L13.066,20.414 L16.111,20.414 C18.631,20.414 20.689,18.377 20.689,15.71 C20.689,13.022 18.799,11.027 15.859,11.027 L12.142,11.027 Z M13.066,12.623 L15.775,12.623 C17.581,12.623 18.862,13.799 18.862,15.668 C18.862,17.495 17.518,18.818 15.691,18.818 L13.066,18.818 L13.066,12.623 Z" id="P" fill="#FFFFFF"></path>
                    </g>
                    <g id="9" transform="translate(352.000000, 0.000000)">
                        <polygon id="Rectangle-1-Copy-11" fill="#BDBDBD" points="0 0 30 0 30 45 15 35 0 45"></polygon>
                        <path d="M7.596,10.901 C7.029,10.901 6.735,11.405 6.735,12.056 C6.735,12.182 6.798,12.56 6.882,13.001 L8.898,24.845 C9.045,25.685 9.633,26.126 10.284,26.126 C10.893,26.126 11.544,25.727 11.712,25.118 L14.862,14.219 L14.904,14.219 L18.033,25.013 C18.264,25.832 18.726,26.126 19.419,26.126 C20.175,26.126 20.721,25.685 20.868,24.803 L22.926,12.854 C23.01,12.392 23.031,12.161 23.031,12.014 C23.031,11.3 22.716,10.901 22.149,10.901 C21.645,10.901 21.246,11.279 21.162,11.804 L19.419,23.816 L15.807,11.636 C15.66,11.174 15.261,10.901 14.82,10.901 C14.379,10.901 14.106,11.153 13.959,11.636 L10.305,23.816 L8.583,11.72 C8.499,11.195 8.121,10.901 7.596,10.901 L7.596,10.901 Z" id="W" fill="#FFFFFF"></path>
                    </g>
                    <g id="10" transform="translate(384.000000, 0.000000)">
                        <polygon id="Rectangle-1-Copy-12" fill="#BDBDBD" points="0 0 30 0 30 45 15 35 0 45"></polygon>
                        <path d="M12.528,21.17 L15.405,13.043 L15.447,13.043 L18.345,21.17 L12.528,21.17 Z M18.891,22.766 L19.878,25.475 C20.046,25.916 20.382,26.168 20.823,26.168 C21.306,26.168 21.684,25.937 21.684,25.433 C21.684,25.286 21.663,25.076 21.6,24.887 L16.707,11.93 C16.476,11.3 16.056,10.901 15.405,10.901 C14.775,10.901 14.355,11.384 14.124,11.972 L9.294,24.887 C9.252,25.013 9.168,25.286 9.168,25.391 C9.168,25.853 9.609,26.168 10.029,26.168 C10.533,26.168 10.806,25.937 10.974,25.475 L11.961,22.766 L18.891,22.766 Z" id="A" fill="#FFFFFF"></path>
                    </g>
                    <g id="13">
                        <polygon id="Rectangle-1" fill="#629EA8" points="0 0 30 0 30 45 15 35 0 45"></polygon>
                        <path d="M13.066,12.749 L17.623,12.749 C18.127,12.749 18.442,12.371 18.442,11.888 C18.442,11.426 18.148,11.027 17.665,11.027 L12.016,11.027 C11.554,11.027 11.239,11.51 11.239,12.056 L11.239,24.971 C11.239,25.475 11.407,26 12.142,26 L17.539,26 C18.085,26 18.442,25.664 18.442,25.181 C18.442,24.656 18.19,24.278 17.665,24.278 L13.066,24.278 L13.066,19.406 L17.182,19.406 C17.707,19.406 18.043,19.028 18.043,18.545 C18.043,18.041 17.728,17.684 17.224,17.684 L13.066,17.684 L13.066,12.749 Z" id="E-Copy-2" fill="#FFFFFF"></path>
                    </g>
                    <g id="14" transform="translate(64.000000, 0.000000)">
                        <polygon id="Rectangle-1-Copy-2" fill="#5BD7C4" points="0 0 30 0 30 45 15 35 0 45"></polygon>
                        <path d="M13.066,12.749 L17.623,12.749 C18.127,12.749 18.442,12.371 18.442,11.888 C18.442,11.426 18.148,11.027 17.665,11.027 L12.016,11.027 C11.554,11.027 11.239,11.51 11.239,12.056 L11.239,24.971 C11.239,25.475 11.407,26 12.142,26 L17.539,26 C18.085,26 18.442,25.664 18.442,25.181 C18.442,24.656 18.19,24.278 17.665,24.278 L13.066,24.278 L13.066,19.406 L17.182,19.406 C17.707,19.406 18.043,19.028 18.043,18.545 C18.043,18.041 17.728,17.684 17.224,17.684 L13.066,17.684 L13.066,12.749 Z" id="E" fill="#FFFFFF"></path>
                    </g>
                    <g id="15" transform="translate(32.000000, 0.000000)">
                        <polygon id="Rectangle-1-Copy" fill="#F64F63" points="0 0 30 0 30 45 15 35 0 45"></polygon>
                        <path d="M13.066,12.749 L17.623,12.749 C18.127,12.749 18.442,12.371 18.442,11.888 C18.442,11.426 18.148,11.027 17.665,11.027 L12.016,11.027 C11.554,11.027 11.239,11.51 11.239,12.056 L11.239,24.971 C11.239,25.475 11.407,26 12.142,26 L17.539,26 C18.085,26 18.442,25.664 18.442,25.181 C18.442,24.656 18.19,24.278 17.665,24.278 L13.066,24.278 L13.066,19.406 L17.182,19.406 C17.707,19.406 18.043,19.028 18.043,18.545 C18.043,18.041 17.728,17.684 17.224,17.684 L13.066,17.684 L13.066,12.749 Z" id="E-Copy" fill="#FFFFFF"></path>
                    </g>
                </g>
                <g id="small" transform="translate(6.000000, 75.000000)">
                    <polygon id="Rectangle-1-Copy-15" fill="#629EA8" points="0 0 18 0 18 25 9 15 0 25"></polygon>
                    <polygon id="Rectangle-1-Copy-16" fill="#F64F63" points="20 0 38 0 38 25 29 15 20 25"></polygon>
                    <polygon id="Rectangle-1-Copy-17" fill="#5BD7C4" points="40 0 58 0 58 25 49 15 40 25"></polygon>
                    <polygon id="Rectangle-1-Copy-18" fill="#464646" points="60 0 78 0 78 25 69 15 60 25"></polygon>
                    <polygon id="Rectangle-1-Copy-19" fill="#7CC64B" points="80 0 98 0 98 25 89 15 80 25"></polygon>
                    <polygon id="Rectangle-1-Copy-20" fill="#F64F63" points="100 0 118 0 118 25 109 15 100 25"></polygon>
                    <polygon id="Rectangle-1-Copy-21" fill="#EDB42A" points="120 0 138 0 138 25 129 15 120 25"></polygon>
                    <polygon id="Rectangle-1-Copy-22" fill="#DE6FCA" points="140 0 158 0 158 25 149 15 140 25"></polygon>
                    <polygon id="Rectangle-1-Copy-23" fill="#BDBDBD" points="160 0 178 0 178 25 169 15 160 25"></polygon>
                </g>
            </g>
        </g>
    </g>
</svg>