<svg xmlns="http://www.w3.org/2000/svg" width="50" height="59" baseProfile="full" version="1.2">
        <defs>
            <mask id="userpicmask-59" maskUnits="userSpaceOnUse" maskContentUnits="userSpaceOnUse">
                <svg viewBox="0 0 30 35" xmlns="http://www.w3.org/2000/svg" xmlns:xlink="http://www.w3.org/1999/xlink">
                    <path fill="white" d="M29.8126 9.92012C29.6358 9.30668 29.3523 8.72003 28.991 8.20004C28.6284 7.68135 28.1894 7.22606 27.6652 6.90453L17.3347 0.601246C16.9845 0.387978 16.604 0.240934 16.2101 0.143558C15.816 0.0466183 15.408 0 15.0001 0C14.592 0 14.184 0.0466183 13.7899 0.143558C13.396 0.240934 13.0153 0.387978 12.6653 0.601246L2.3346 6.90453C1.9848 7.11845 1.67417 7.39315 1.39734 7.7051C0.983228 8.17368 0.644148 8.72656 0.398651 9.31713C0.154802 9.90836 0.00144289 10.5377 0 11.1782V23.7849C0.000412255 24.2121 0.0700833 24.6339 0.18737 25.043C0.364227 25.6564 0.647653 26.2431 1.00899 26.7631C1.37157 27.282 1.81062 27.737 2.3346 28.0586L12.6653 34.3621C13.0153 34.5751 13.396 34.7224 13.7899 34.8196C14.184 34.9165 14.592 34.9631 15.0001 34.9633C15.408 34.9631 15.816 34.9165 16.2101 34.8196C16.604 34.7224 16.9845 34.5751 17.3347 34.3621L27.6652 28.0586C28.015 27.8449 28.3258 27.57 28.6027 27.258C29.0168 26.7896 29.3559 26.2368 29.6013 25.6462C29.8452 25.055 29.9986 24.4254 30 23.7849V11.1782C29.9998 10.7512 29.9299 10.3292 29.8126 9.92012Z"/>
                </svg>
            </mask>
        </defs>
    </svg>