<?xml version="1.0" encoding="UTF-8"?>
<svg width="21px" height="1165px" viewBox="0 0 21 1165" version="1.1" xmlns="http://www.w3.org/2000/svg" xmlns:xlink="http://www.w3.org/1999/xlink">
    <!-- Generator: Sketch 53.2 (72643) - https://sketchapp.com -->
    <title>flag</title>
    <desc>Created with Sketch.</desc>
    <defs>
        <rect id="path-1" x="0" y="0.001" width="21" height="15"></rect>
        <polygon id="path-3" points="0 0 21 0 21 15 0 15"></polygon>
        <path d="M0,0 L9,0 C9,1.63636364 9,3.19090909 9,4.66363636 C9,6.87272727 6.87621074,9 4.59228516,9 C2.30835957,9 1.35267806e-16,6.87272727 0,4.66363636 C0,3.19090909 0,1.63636364 0,0 Z" id="path-5"></path>
        <path d="M0,-2.27373675e-13 L2.88867187,-2.27373675e-13 L7,-2.27373675e-13 C7,1.27272727 7,2.48181818 7,3.62727273 C7,5.34545455 5.34816391,7 3.57177734,7 C1.79539077,7 1.05208293e-16,5.34545455 0,3.62727273 C0,2.48181818 0,1.27272727 0,-2.27373675e-13 Z" id="path-7"></path>
    </defs>
    <g id="UI" stroke="none" stroke-width="1" fill="none" fill-rule="evenodd">
        <g id="icons" transform="translate(-450.000000, -120.000000)">
            <g id="flag" transform="translate(450.000000, 120.000000)">
                <g id="Group" transform="translate(0.000000, 575.000000)">
                    <polygon id="Path" fill="#F14D5E" points="0 0 21 0 21 15 0 15"></polygon>
                    <polygon id="Star" fill="#F8BA37" points="10.5 9.25 8.44275162 10.3315595 8.8356511 8.04077974 7.17130219 6.41844052 9.47137581 6.08422026 10.5 4 11.5286242 6.08422026 13.8286978 6.41844052 12.1643489 8.04077974 12.5572484 10.3315595"></polygon>
                </g>
                <g id="Group" transform="translate(0.000000, 800.000000)">
                    <polygon id="Path" fill="#4D84C9" points="0 -4.16333634e-17 21 -4.16333634e-17 21 15 0 15"></polygon>
                    <polygon id="Path" fill="#F9D657" points="0 7.5 21 7.5 21 15.042 0 15.042"></polygon>
                </g>
                <g id="Шведский" transform="translate(0.000000, 350.000000)">
                    <polygon id="Path" fill="#4D84C9" points="0 0 21 0 21 15 0 15"></polygon>
                    <rect id="Rectangle" fill="#FDCA4A" x="5" y="0" width="3" height="15"></rect>
                    <rect id="Rectangle" fill="#FDCA4A" x="0" y="6" width="21" height="3"></rect>
                </g>
                <g id="Польский" transform="translate(0.000000, 200.000000)">
                    <polygon id="Path" fill="#ECF2FB" points="0 0 21 0 21 15 0 15"></polygon>
                    <polygon id="Path" fill="#F14D5E" points="0 7.5 21 7.5 21 15 0 15"></polygon>
                </g>
                <g id="Румынский" transform="translate(0.000000, 225.000000)">
                    <polygon id="Path" fill="#FDCA4A" points="7 0 14 0 14 15 7 15"></polygon>
                    <polygon id="Path" fill="#4D84C9" points="0 0 7 0 7 15 0 15"></polygon>
                    <polygon id="Path" fill="#F14D5E" points="14 0 21 0 21 15 14 15"></polygon>
                </g>
                <g id="Нидерланды" transform="translate(0.000000, 250.000000)">
                    <polygon id="Path" fill="#ECF2FB" points="0 5 21 5 21 10 0 10"></polygon>
                    <polygon id="Path" fill="#4D84C9" points="0 10 21 10 21 15 0 15"></polygon>
                    <polygon id="Path" fill="#F14D5E" points="0 0 21 0 21 5 0 5"></polygon>
                </g>
                <g id="Норвегия" transform="translate(0.000000, 425.000000)">
                    <polygon id="Path" fill="#F14D5E" points="0 0 21 0 21 15 0 15"></polygon>
                    <rect id="Rectangle" fill="#ECF2FB" x="5" y="0" width="3" height="15"></rect>
                    <rect id="Rectangle" fill="#ECF2FB" x="0" y="6" width="21" height="3"></rect>
                    <rect id="Rectangle" fill="#4356AB" x="0" y="7" width="21" height="1"></rect>
                    <rect id="Rectangle" fill="#4356AB" x="6" y="0" width="1" height="15"></rect>
                </g>
                <g id="Group" transform="translate(0.000000, 500.000000)">
                    <polygon id="Path" fill="#ECF2FB" points="0 5 21 5 21 10 0 10"></polygon>
                    <path d="M11.9771135,7.40528626 L11.880012,7.23734845 C11.8497673,7.18561406 11.825094,7.09328806 11.825094,7.03279861 L11.8242981,6.83859565 C11.8242981,6.7781062 11.7813188,6.70408622 11.7287885,6.67463741 L11.5656263,6.58071959 C11.513096,6.55127078 11.4462393,6.4836181 11.4159946,6.4310878 L11.321281,6.26792547 C11.2910363,6.21619108 11.2178122,6.17321173 11.1565269,6.17321173 L10.9623241,6.17321173 C10.9018347,6.17321173 10.8095087,6.1485384 10.7569785,6.11908959 L10.5890408,6.02198811 C10.5365105,5.9925393 10.4513478,5.9925393 10.3988175,6.02278403 L10.2364512,6.11829368 C10.1839209,6.1485384 10.0923909,6.17321173 10.0319015,6.17321173 L9.84327007,6.17321173 C9.78278067,6.17321173 9.70876074,6.21619108 9.67851603,6.26792547 L9.58141462,6.43586328 C9.55116992,6.48759767 9.48351729,6.55525034 9.43178293,6.58629098 L9.26384524,6.68418838 C9.21211088,6.7144331 9.16913156,6.789249 9.16992748,6.84894253 L9.17072339,7.03757409 C9.17072339,7.09806354 9.14605008,7.18959363 9.11660129,7.24212394 L9.02268353,7.40528626 C8.99243882,7.45702066 8.99243882,7.54297934 9.02268353,7.59550965 L9.11978494,7.76424337 C9.15002965,7.81597777 9.17470296,7.90830377 9.17549887,7.9679973 L9.17629478,8.16220026 C9.17629478,8.22268971 9.2192741,8.29591378 9.27180437,8.3261585 L9.43496658,8.42007633 C9.48749686,8.44952514 9.55514948,8.51717781 9.58539419,8.56970812 L9.67931195,8.73287044 C9.70955665,8.78460484 9.78357658,8.82758418 9.84406599,8.82758418 L10.0382688,8.82758418 C10.0987582,8.82758418 10.1902882,8.85225751 10.2428185,8.88170632 L10.4115521,8.97801189 C10.4632865,9.0074607 10.5492451,9.0074607 10.6009795,8.97721597 L10.7641417,8.88250223 C10.815876,8.85225751 10.908202,8.82758418 10.9686914,8.82758418 L11.1565269,8.82758418 C11.2170163,8.82758418 11.2910363,8.78460484 11.321281,8.73287044 L11.4183824,8.56493264 C11.4486271,8.51240233 11.5162797,8.44474966 11.5680141,8.41450493 L11.7359518,8.31660754 C11.7876861,8.2855669 11.8306654,8.21234283 11.8306654,8.15105747 L11.8298695,7.96242591 C11.8298695,7.90273237 11.8545428,7.81040637 11.8847875,7.75867198 L11.9787053,7.59550965 C12.0073582,7.54297934 12.0073582,7.45781657 11.9771135,7.40528626 Z M11.3937091,7.55810171 L11.3364033,7.65679501 C11.3180973,7.68863157 11.3029749,7.74354962 11.3029749,7.78095756 L11.3037709,7.89477323 C11.3037709,7.93138527 11.2783016,7.97675235 11.2464651,7.99426246 L11.1453841,8.05316008 C11.1135476,8.07146609 11.072956,8.11285361 11.05465,8.14389425 L10.9957524,8.24577121 C10.9782423,8.27760776 10.9328753,8.303077 10.8962633,8.303077 L10.7824477,8.303077 C10.7458357,8.303077 10.6901218,8.31819936 10.6590811,8.33650538 L10.5603879,8.39381117 C10.5285514,8.41211719 10.476817,8.41211719 10.4449805,8.39460709 L10.3431036,8.33650538 C10.3112671,8.31819936 10.2555531,8.303077 10.2189411,8.303077 L10.1019419,8.303077 C10.0653299,8.303077 10.0207587,8.27760776 10.0024527,8.24577121 L9.94514697,8.1470779 C9.92763688,8.11524135 9.88624939,8.07464975 9.85441286,8.05634373 L9.75571962,7.99983385 C9.72388309,7.98232375 9.69761795,7.93695666 9.69761795,7.90034463 L9.69761795,7.78254939 C9.69761795,7.74673327 9.6824956,7.69022339 9.6641896,7.65918276 L9.60529202,7.55730579 C9.58698601,7.52546924 9.58698601,7.47373485 9.60529202,7.44189829 L9.66180186,7.34320499 C9.68010786,7.31057252 9.69523021,7.25565447 9.69523021,7.21904244 L9.69523021,7.10443085 C9.69523021,7.06861473 9.72069944,7.02324765 9.75174005,7.00494163 L9.85282103,6.94604401 C9.88465756,6.92853391 9.92524914,6.88714639 9.94355514,6.85530984 L10.0024527,6.75422879 C10.0207587,6.72239224 10.0653299,6.696923 10.1019419,6.696923 L10.2157575,6.696923 C10.2523695,6.696923 10.3080834,6.68180064 10.339124,6.66349462 L10.4378173,6.60618883 C10.4696538,6.58788281 10.5205922,6.58788281 10.5524288,6.60618883 L10.6543057,6.66429053 C10.6861422,6.68180064 10.7418561,6.696923 10.7776722,6.696923 L10.8970592,6.696923 C10.9336712,6.696923 10.9790383,6.72239224 10.9965484,6.75422879 L11.0538541,6.8529221 C11.0721601,6.88475865 11.1127517,6.92455434 11.1445882,6.94365627 L11.2440774,7.00016615 C11.2759139,7.01767625 11.3013831,7.06304334 11.3013831,7.09965537 L11.302179,7.21745061 C11.302179,7.25326673 11.3173014,7.30898069 11.3356074,7.34081724 L11.394505,7.44269421 C11.4112191,7.47453076 11.4112191,7.52626515 11.3937091,7.55810171 Z" id="Shape" fill="#4356AB" fill-rule="nonzero"></path>
                    <polygon id="Path" fill="#50AC5F" points="0 9.998 21 9.998 21 14.998 0 14.998"></polygon>
                    <polygon id="Path" fill="#F7674A" points="0 0 21 0 21 5 0 5"></polygon>
                </g>
                <g id="Group" transform="translate(0.000000, 625.000000)">
                    <polygon id="Path" fill="#F14D5E" points="0 0 21 0 21 15 0 15"></polygon>
                    <polygon id="Path" fill="#ECF2FB" points="0 7.5 21 7.5 21 15 0 15"></polygon>
                </g>
                <g id="Магьяр" transform="translate(0.000000, 275.000000)">
                    <polygon id="Path" fill="#ECF2FB" points="0 5 21 5 21 10 0 10"></polygon>
                    <polygon id="Path" fill="#50AC5F" points="0 10 21 10 21 15 0 15"></polygon>
                    <polygon id="Path" fill="#F14D5E" points="0 2.84772206e-14 21 2.84772206e-14 21 5 0 5"></polygon>
                </g>
                <g id="Финляндия" transform="translate(0.000000, 375.000000)">
                    <polygon id="Path" fill="#ECF2FB" points="0 0 21 0 21 15 0 15"></polygon>
                    <rect id="Rectangle" fill="#4356AB" x="5" y="0" width="3" height="15"></rect>
                    <rect id="Rectangle" fill="#4356AB" x="0" y="6" width="21" height="3"></rect>
                </g>
                <g id="Group" transform="translate(0.000000, 825.000000)">
                    <polygon id="Path" fill="#ECF2FB" points="0 10 21 10 21 15 0 15"></polygon>
                    <polygon id="Path" fill="#434B58" points="0 5 21 5 21 10 0 10"></polygon>
                    <polygon id="Path" fill="#32B0DE" points="0 0 21 0 21 5 0 5"></polygon>
                </g>
                <g id="Group" transform="translate(0.000000, 400.000000)">
                    <polygon id="Path" fill="#F14D5E" points="0 0 21 0 21 15 0 15"></polygon>
                    <rect id="Rectangle" fill="#FFFFFF" x="5" y="0" width="3" height="15"></rect>
                    <rect id="Rectangle" fill="#FFFFFF" x="0" y="6" width="21" height="3"></rect>
                </g>
                <g id="Китайский" transform="translate(0.000000, 475.000000)">
                    <polygon id="Path" fill="#F14D5E" points="0 0 21 0 21 15 0 15"></polygon>
                    <polygon id="Star" fill="#F8BA37" points="5 6.5 3.23664424 7.42705098 3.57341523 5.46352549 2.14683045 4.07294902 4.11832212 3.78647451 5 2 5.88167788 3.78647451 7.85316955 4.07294902 6.42658477 5.46352549 6.76335576 7.42705098"></polygon>
                    <polygon id="Star" fill="#F8BA37" points="8 2.5 7.41221475 2.80901699 7.52447174 2.1545085 7.04894348 1.69098301 7.70610737 1.5954915 8 1 8.29389263 1.5954915 8.95105652 1.69098301 8.47552826 2.1545085 8.58778525 2.80901699"></polygon>
                    <polygon id="Star" fill="#F8BA37" points="10 4.5 9.41221475 4.80901699 9.52447174 4.1545085 9.04894348 3.69098301 9.70610737 3.5954915 10 3 10.2938926 3.5954915 10.9510565 3.69098301 10.4755283 4.1545085 10.5877853 4.80901699"></polygon>
                    <polygon id="Star" fill="#F8BA37" points="10 7.5 9.41221475 7.80901699 9.52447174 7.1545085 9.04894348 6.69098301 9.70610737 6.5954915 10 6 10.2938926 6.5954915 10.9510565 6.69098301 10.4755283 7.1545085 10.5877853 7.80901699"></polygon>
                    <polygon id="Star" fill="#F8BA37" points="8 9.5 7.41221475 9.80901699 7.52447174 9.1545085 7.04894348 8.69098301 7.70610737 8.5954915 8 8 8.29389263 8.5954915 8.95105652 8.69098301 8.47552826 9.1545085 8.58778525 9.80901699"></polygon>
                </g>
                <g id="Group" transform="translate(0.000000, 525.000000)">
                    <polygon id="Path" fill="#434B58" points="5 10 21 10 21 15 5 15"></polygon>
                    <polygon id="Path" fill="#ECF2FB" points="5 5 21 5 21 10 5 10"></polygon>
                    <polygon id="Path" fill="#53BF5E" points="5 0 21 0 21 5 5 5"></polygon>
                    <polygon id="Path" fill="#F14D5E" points="0 0 5 0 5 15 0 15"></polygon>
                </g>
                <g id="Японский" transform="translate(0.000000, 450.000000)">
                    <polygon id="Path" fill="#ECF2FB" points="0 0 21 0 21 15 0 15"></polygon>
                    <path d="M10.5005862,4 C12.4337632,4 14,5.56740914 14,7.50058617 C14,9.43259086 12.4337632,11 10.5005862,11 C8.56740914,11 7,9.43259086 7,7.50058617 C7,5.56740914 8.56740914,4 10.5005862,4 Z" id="Path" fill="#F14D5E"></path>
                </g>
                <g id="Group" transform="translate(0.000000, 775.000000)">
                    <polygon id="Path" fill="#ECF2FB" points="0 0 21 0 21 15 0 15"></polygon>
                    <polygon id="Path" fill="#F14D5E" points="0 0 21 0 21 2 0 2"></polygon>
                    <polygon id="Path" fill="#F14D5E" points="0 13 21 13 21 15 0 15"></polygon>
                    <polygon id="Path" fill="#4356AB" points="21 5 0 5 0 10 21 10"></polygon>
                </g>
                <g id="Group" transform="translate(0.000000, 700.000000)">
                    <polygon id="Path" fill="#F9D657" points="0 0 21 0 21 15 0 15"></polygon>
                    <polygon id="Path" fill="#F14D5E" points="0 10 21 10 21 15 0 15"></polygon>
                    <polygon id="Path" fill="#53BF5E" points="0 5 21 5 21 10 0 10"></polygon>
                </g>
                <g id="Group" transform="translate(0.000000, 675.000000)">
                    <polygon id="Path" fill="#F14D5E" points="0 0 21 0 21 15 0 15"></polygon>
                    <polygon id="Path" fill="#ECF2FB" points="0 6 21 6 21 9 0 9"></polygon>
                </g>
                <g id="Group" transform="translate(0.000000, 550.000000)">
                    <polygon id="Path" fill="#ECF2FB" points="0 0 0 15 21 15 21 0"></polygon>
                    <polygon id="Path" fill="#F14D5E" fill-rule="nonzero" points="4 0 11.083736 5 21 5 21 0"></polygon>
                    <polygon id="Path" fill="#4356AB" fill-rule="nonzero" points="11.083736 10 4 15 21 15 21 10"></polygon>
                    <polygon id="Path" fill="#53BF5E" fill-rule="nonzero" points="0 0 0 2 7.97713636 7.50203087 0 13 0 15 2.52668182 15 10.9266818 9.00182778 21 9.00182778 21 5.99918765 10.9266818 5.99918765 2.52668182 0"></polygon>
                    <polygon id="Path" fill="#FDCA4A" fill-rule="nonzero" points="-1.42108547e-14 13 8 7.5 -1.42108547e-14 2"></polygon>
                    <polygon id="Path" fill="#434B58" fill-rule="nonzero" points="0 11 6 7.49960474 0 4"></polygon>
                </g>
                <g id="Греческий" transform="translate(0.000000, 300.000000)">
                    <polygon id="Path" fill="#0474BD" points="0 0 21 0 21 15 0 15"></polygon>
                    <polygon id="Path" fill="#ECF2FB" points="0 1.6 21 1.6 21 3.2 0 3.2"></polygon>
                    <polygon id="Path" fill="#ECF2FB" points="0 5 21 5 21 6.6 0 6.6"></polygon>
                    <polygon id="Path" fill="#ECF2FB" points="0 8.4 21 8.4 21 10 0 10"></polygon>
                    <polygon id="Path" fill="#ECF2FB" points="0 11.7 21 11.7 21 13.3 0 13.3"></polygon>
                    <polygon id="Path" fill="#0474BD" points="0 0 8.4 0 8.4 8.4 0 8.4"></polygon>
                    <polygon id="Path" fill="#ECF2FB" points="0 3.3 8.4 3.3 8.4 5.1 0 5.1"></polygon>
                    <rect id="Rectangle" fill="#ECF2FB" x="3.3" y="0" width="1.8" height="8.4"></rect>
                </g>
                <g id="Грузинский" transform="translate(0.000000, 850.000000)">
                    <polygon id="Path" fill="#ECF2FB" points="0 0 21 0 21 15 0 15"></polygon>
                    <rect id="Rectangle" fill="#F14D5E" x="0" y="6" width="21" height="3"></rect>
                    <rect id="Rectangle" fill="#F14D5E" x="9" y="0" width="3" height="15"></rect>
                    <rect id="Rectangle" fill="#F14D5E" x="4" y="1" width="1" height="4" rx="0.5"></rect>
                    <rect id="Rectangle" fill="#F14D5E" transform="translate(4.500000, 3.000000) rotate(-270.000000) translate(-4.500000, -3.000000) " x="4" y="1" width="1" height="4" rx="0.5"></rect>
                    <rect id="Rectangle" fill="#F14D5E" x="16" y="1" width="1" height="4" rx="0.5"></rect>
                    <rect id="Rectangle" fill="#F14D5E" transform="translate(16.500000, 3.000000) rotate(-270.000000) translate(-16.500000, -3.000000) " x="16" y="1" width="1" height="4" rx="0.5"></rect>
                    <rect id="Rectangle" fill="#F14D5E" x="16" y="10" width="1" height="4" rx="0.5"></rect>
                    <rect id="Rectangle" fill="#F14D5E" transform="translate(16.500000, 12.000000) rotate(-270.000000) translate(-16.500000, -12.000000) " x="16" y="10" width="1" height="4" rx="0.5"></rect>
                    <rect id="Rectangle" fill="#F14D5E" x="4" y="10" width="1" height="4" rx="0.5"></rect>
                    <rect id="Rectangle" fill="#F14D5E" transform="translate(4.500000, 12.000000) rotate(-270.000000) translate(-4.500000, -12.000000) " x="4" y="10" width="1" height="4" rx="0.5"></rect>
                </g>
                <g id="Израильский" transform="translate(0.000000, 600.000000)">
                    <polygon id="Path" fill="#ECF2FB" points="0 0 21 0 21 15 0 15"></polygon>
                    <path d="M10.5,3.92462872 L6.91583275,9.5 L14.0841673,9.5 L10.5,3.92462872 Z" id="Triangle" stroke="#4356AB"></path>
                    <path d="M10.5,5.92462872 L6.91583275,11.5 L14.0841673,11.5 L10.5,5.92462872 Z" id="Triangle" stroke="#4356AB" transform="translate(10.500000, 8.500000) rotate(-180.000000) translate(-10.500000, -8.500000) "></path>
                    <polygon id="Path" fill="#4356AB" points="0 13 21 13 21 15 0 15"></polygon>
                    <polygon id="Path" fill="#4356AB" points="0 0 21 0 21 2 0 2"></polygon>
                </g>
                <g id="Казахский" transform="translate(0.000000, 650.000000)">
                    <polygon id="Path" fill="#32B0DE" points="0 0 21 0 21 15 0 15"></polygon>
                    <path d="M14.600593,8.57711323 C14.600593,8.43639208 14.6572896,8.22176703 14.7271478,8.09926877 L14.946847,7.71962539 C15.0177177,7.59712713 15.0177177,7.39768781 14.946847,7.27620193 L14.7200607,6.88339758 C14.6502025,6.7619117 14.5914811,6.54627426 14.5914811,6.40555312 L14.5894562,5.95301822 C14.5894562,5.81229707 14.4882123,5.64019207 14.3667197,5.57033769 L13.9850304,5.35267549 C13.8625253,5.28282111 13.7055973,5.12590185 13.6347266,5.00441597 L13.4150275,4.62477259 C13.3441568,4.50227433 13.1720422,4.40306086 13.0313133,4.40306086 L12.5787533,4.40306086 C12.4380243,4.40306086 12.2223749,4.34535507 12.1008823,4.27651307 L11.7070437,4.05176419 C11.5845386,3.98190981 11.3861007,3.98292219 11.2635956,4.05378896 L10.8839312,4.27550069 C10.7624385,4.34636745 10.5478016,4.40407324 10.4070726,4.40407324 L9.96868672,4.40407324 C9.82795777,4.40407324 9.65483078,4.5042991 9.58497252,4.62578498 L9.35818629,5.01757694 C9.28731559,5.1400752 9.13038762,5.29699446 9.008895,5.36786123 L8.61708128,5.59665963 C8.49558866,5.6675264 8.39636968,5.84064378 8.39738212,5.98136492 L8.399407,6.42073885 C8.399407,6.56146 8.34271044,6.77608505 8.27285218,6.89858332 L8.05315302,7.27822669 C7.98228233,7.39971257 7.98228233,7.59915189 8.05315302,7.72165015 L8.27993925,8.1144545 C8.34979751,8.23594038 8.40851895,8.45157782 8.40851895,8.59229896 L8.41054382,9.04483387 C8.41054382,9.18555501 8.51178768,9.35766001 8.6332803,9.42751439 L9.01496963,9.64517659 C9.13747469,9.71503097 9.29440266,9.87195023 9.36527336,9.9944485 L9.58497252,10.3740919 C9.65584322,10.4955778 9.82795777,10.5958036 9.96868672,10.5958036 L10.4212467,10.5958036 C10.5619757,10.5958036 10.7776251,10.6535094 10.8991177,10.7233638 L11.2929563,10.9481127 C11.4154614,11.017967 11.6138993,11.0169547 11.7364044,10.9471003 L12.1160688,10.7253885 C12.2375615,10.6545218 12.4521984,10.596816 12.5929274,10.596816 L13.0323257,10.596816 C13.1730547,10.596816 13.3461817,10.4965901 13.4160399,10.3751043 L13.6428261,9.98229991 C13.7136968,9.86081403 13.8706248,9.70288238 13.9921174,9.63201562 L14.3839312,9.40422959 C14.5054238,9.33336283 14.6046428,9.16024545 14.6036303,9.01952431 L14.600593,8.57711323 Z" id="Path" fill="#F9D657" fill-rule="nonzero"></path>
                    <g id="Group" transform="translate(2.000000, 1.000000)" fill="#F9D657">
                        <polygon id="Path" points="0 0 2.2 0 2.2 1.257 2.22044605e-16 1.257"></polygon>
                        <polygon id="Path" points="0 2 2.2 2 2.2 3.257 2.22044605e-16 3.257"></polygon>
                        <polygon id="Path" points="0 6 2.2 6 2.2 7.257 2.22044605e-16 7.257"></polygon>
                        <polygon id="Path" points="0 8 2.2 8 2.2 9.257 2.22044605e-16 9.257"></polygon>
                        <polygon id="Path" points="0 10 2.2 10 2.2 11.257 2.22044605e-16 11.257"></polygon>
                        <polygon id="Path" points="0 12 2.2 12 2.2 13.257 2.22044605e-16 13.257"></polygon>
                        <polygon id="Path" points="0 4 2.2 4 2.2 5.257 2.22044605e-16 5.257"></polygon>
                    </g>
                </g>
                <g id="Чешский" transform="translate(0.000000, 325.000000)">
                    <polygon id="Path" fill="#ECF2FB" points="0 0 21 0 21 15 0 15"></polygon>
                    <polygon id="Path" fill="#F14D5E" points="0 7.5 21 7.5 21 15 0 15"></polygon>
                    <polygon id="Path" fill="#4356AB" points="0 5.68416841e-14 8 7.50050768 0 15"></polygon>
                </g>
                <g id="Group" transform="translate(0.000000, 750.000000)">
                    <polygon id="Path" fill="#4356AB" points="0 5.55111512e-17 21 5.55111512e-17 21 15 0 15"></polygon>
                    <polygon id="Path" fill="#F14D5E" points="0 7.5 21 7.5 21 15 0 15"></polygon>
                    <polygon id="Path" fill="#ECF2FB" points="0 0 11 7.49949225 0 15"></polygon>
                    <path d="M5.72628849,7.85373822 C5.6909538,7.89336975 5.61814292,7.91800557 5.56567626,7.90836547 L4.77760558,7.7626928 C4.72513892,7.75198158 4.66838926,7.7862575 4.65125729,7.83660026 L4.54739471,8.07867395 C4.52169676,8.12580334 4.53668723,8.18792845 4.58165866,8.21791988 L5.24552255,8.656009 C5.29049397,8.68600043 5.32475791,8.75348115 5.32154567,8.80703728 L5.3022722,9.20013925 C5.3001307,9.25369537 5.25408853,9.29975364 5.20055112,9.30189589 L4.82150626,9.32117609 C4.76796885,9.32331834 4.69944096,9.28904242 4.67053076,9.24405527 L4.21974576,8.56710583 C4.18976481,8.52211868 4.12766142,8.50819409 4.08161924,8.53497215 L3.82463967,8.65279563 C3.77324376,8.66886247 3.74005057,8.72456084 3.75075805,8.77704584 L3.90815804,9.56539203 C3.91886552,9.61787704 3.89423831,9.68964225 3.85462062,9.72606041 L3.58050908,9.97348972 C3.53982065,10.0088368 3.47557576,10.0088368 3.43595808,9.97348972 L3.16077579,9.72606041 C3.1211581,9.69071337 3.09653089,9.61894816 3.10723838,9.56646315 L3.26570911,8.77811697 C3.27641659,8.72563196 3.2432234,8.66993359 3.19182748,8.65386675 L2.92199894,8.53497215 C2.87595676,8.50926521 2.81278262,8.52426093 2.78387242,8.56924807 L2.3437949,9.24512639 C2.3148847,9.29011354 2.24742757,9.32438946 2.19389016,9.32224722 L1.81484529,9.30296701 C1.76130788,9.30082476 1.71526571,9.2547665 1.71312421,9.20121037 L1.69385074,8.8081084 C1.69170925,8.75455227 1.72597319,8.68707155 1.76987387,8.65708012 L2.43266701,8.218991 C2.47763843,8.18899957 2.49262891,8.12687446 2.46693095,8.07974507 L2.36306837,7.83767138 C2.3459364,7.78732862 2.28918675,7.7530527 2.23672008,7.76376392 L1.4486494,7.90943659 C1.39618274,7.91907669 1.32337186,7.895512 1.28696642,7.85588046 L1.02784536,7.57845973 C0.991439918,7.53882819 0.99036917,7.47456084 1.02677461,7.43492931 L1.28803717,7.14572622 C1.32337186,7.10609469 1.39618274,7.08252999 1.4486494,7.09217009 L2.23672008,7.24962511 C2.28918675,7.26033633 2.3459364,7.22713153 2.36306837,7.17678877 L2.46478945,6.93364396 C2.49155816,6.88758569 2.47763843,6.82438946 2.43373775,6.79439803 L1.76880312,6.34452656 C1.72490244,6.31453513 1.6906385,6.24598329 1.69277999,6.19242716 L1.71205346,5.81324979 C1.71419496,5.75969366 1.76023713,5.71363539 1.81377454,5.7093509 L2.19281941,5.68150171 C2.24635682,5.67828835 2.31381395,5.71149314 2.34272416,5.75540917 L2.78280167,6.43128749 C2.81171187,6.47627464 2.87488602,6.4934126 2.92306968,6.4698479 L3.19075674,6.3605934 C3.2410819,6.34452656 3.2742751,6.28775707 3.26356761,6.23527207 L3.10723838,5.46085047 C3.09653089,5.40836547 3.11901661,5.33552913 3.15756354,5.29803985 L3.43702882,5.02811697 C3.47557576,4.99062768 3.5387499,4.99062768 3.57729684,5.02811697 L3.85676212,5.29803985 C3.89530906,5.33552913 3.91779477,5.40836547 3.90708729,5.46085047 L3.75075805,6.23527207 C3.74005057,6.28775707 3.77324376,6.34452656 3.82356893,6.3605934 L4.078407,6.46770566 C4.12551992,6.49234147 4.18869407,6.47734576 4.21867502,6.43235861 L4.66946001,5.75540917 C4.69837021,5.71042202 4.7668981,5.67828835 4.82043551,5.68150171 L5.20055112,5.7093509 C5.25408853,5.71363539 5.3001307,5.75969366 5.3022722,5.81324979 L5.32154567,6.19242716 C5.32368717,6.24598329 5.29049397,6.31453513 5.24552255,6.34452656 L4.58058791,6.79439803 C4.53561648,6.82438946 4.52169676,6.88651457 4.54953621,6.93364396 L4.65125729,7.17678877 C4.66838926,7.22713153 4.72513892,7.26033633 4.77760558,7.24962511 L5.56567626,7.09217009 C5.61814292,7.08252999 5.68988305,7.10609469 5.72414699,7.14679734 L5.97363133,7.43492931 C6.00896602,7.47456084 6.00896602,7.53989931 5.97256058,7.57953085 L5.72628849,7.85373822 Z" id="Path" fill="#FDCA4A" fill-rule="nonzero"></path>
                    <circle id="Oval" fill="#FDCA4A" cx="8.5" cy="7.5" r="1"></circle>
                    <circle id="Oval" fill="#FDCA4A" cx="1.5" cy="2.5" r="1"></circle>
                    <circle id="Oval" fill="#FDCA4A" cx="1.5" cy="12.5" r="1"></circle>
                </g>
                <g id="Малайский" transform="translate(0.000000, 725.000000)">
                    <polygon id="Path" fill="#ECF2FB" points="0 0 21 0 21 15 0 15"></polygon>
                    <polygon id="Path" fill="#F14D5E" points="0 0 21 0 21 1 0 1"></polygon>
                    <polygon id="Path" fill="#F14D5E" points="0 2 21 2 21 3 0 3"></polygon>
                    <polygon id="Path" fill="#F14D5E" points="0 4 21 4 21 5 0 5"></polygon>
                    <polygon id="Path" fill="#F14D5E" points="0 6 21 6 21 7 0 7"></polygon>
                    <polygon id="Path" fill="#F14D5E" points="0 8 21 8 21 9 0 9"></polygon>
                    <polygon id="Path" fill="#F14D5E" points="0 10 21 10 21 11 0 11"></polygon>
                    <polygon id="Path" fill="#F14D5E" points="0 12 21 12 21 13 0 13"></polygon>
                    <polygon id="Path" fill="#F14D5E" points="0 14 21 14 21 15 0 15"></polygon>
                    <polygon id="Path" fill="#4356AB" points="0 0 12 0 12 9 0 9"></polygon>
                    <path d="M5.91491256,6.28010669 C5.91232846,6.2809876 5.908883,6.28186851 5.9062989,6.28363033 L5.9062989,6.28274942 C5.81068717,6.33472314 5.70904588,6.37700684 5.60309775,6.41224325 C4.5866848,6.74610829 3.50825344,6.16735016 3.19471589,5.11906681 C3.13442021,4.91733833 3.10685647,4.71296712 3.10944057,4.51211955 C3.10685647,4.31039108 3.13355884,4.10601987 3.19471589,3.90341048 C3.50825344,2.85072257 4.58754617,2.24994169 5.60395911,2.5644267 C5.70990724,2.59702038 5.81068717,2.63842317 5.90716026,2.68775415 L5.90716026,2.68775415 C5.908883,2.68951597 5.91232846,2.69039688 5.91491256,2.69127779 C5.95022861,2.70184872 5.98640602,2.68158778 5.99674242,2.64547045 C6.00535609,2.61640041 5.99415832,2.58644946 5.97176278,2.56971216 C5.73230278,2.36357913 5.44977444,2.20237253 5.13193005,2.10459148 C3.8553843,1.71082454 2.50131554,2.463122 2.10767086,3.7862494 C2.03445468,4.03114249 2,4.27955921 2,4.52269048 C2,4.76582174 2.03445468,5.01423847 2.10767086,5.25825065 C2.50045417,6.57256894 3.8553843,7.30020092 5.13193005,6.88176848 C5.44977444,6.77694015 5.73230278,6.61044809 5.97176278,6.39991051 C5.99415832,6.38317321 6.00621746,6.35322226 5.99674242,6.32415221 C5.98554465,6.28803489 5.94936724,6.26865486 5.91491256,6.28010669 Z" id="Path" fill="#F9D657" fill-rule="nonzero"></path>
                    <path d="M7.46374057,3.04853909 C7.48392623,2.9838203 7.51682138,2.9838203 7.53700704,3.04853909 L7.71793036,3.63527529 C7.73811602,3.69999407 7.80016824,3.71919635 7.85698713,3.67865821 L8.36611433,3.30528063 C8.42218561,3.26474249 8.44909982,3.28323357 8.42592369,3.34724115 L8.21135761,3.92330943 C8.18743386,3.98731702 8.22630995,4.03781189 8.29733356,4.0356783 L8.93953659,4.01860961 C9.01056021,4.01647603 9.02027923,4.04634623 8.9619651,4.08475079 L8.43190463,4.43039175 C8.3735905,4.4687963 8.3735905,4.5313815 8.43190463,4.56907485 L8.9619651,4.91471582 C9.02027923,4.95312037 9.00981259,4.98299058 8.93953659,4.98085699 L8.29733356,4.9644995 C8.22630995,4.96165471 8.18818148,5.01214959 8.21135761,5.07615717 L8.42592369,5.65293664 C8.44984744,5.71694423 8.42293323,5.73472412 8.36611433,5.69418598 L7.85698713,5.32080839 C7.80016824,5.27955906 7.73811602,5.29947253 7.71793036,5.36419131 L7.53700704,5.95092752 C7.51682138,6.01635749 7.48392623,6.01635749 7.46374057,5.95092752 L7.28206964,5.36419131 C7.26188398,5.29947253 7.19983176,5.28027025 7.14301287,5.32080839 L6.63313805,5.69418598 C6.57706677,5.73543531 6.55015256,5.71694423 6.57407631,5.65293664 L6.78864239,5.07615717 C6.81256614,5.01214959 6.77369005,4.96165471 6.70266644,4.9644995 L6.06046341,4.98085699 C5.98943979,4.98299058 5.97972077,4.95312037 6.0380349,4.91471582 L6.56809537,4.56907485 C6.6264095,4.5306703 6.6264095,4.46808511 6.56809537,4.43039175 L6.0380349,4.08475079 C5.97972077,4.04634623 5.99018741,4.01647603 6.06046341,4.01860961 L6.70266644,4.0356783 C6.77369005,4.03781189 6.81181852,3.98731702 6.78864239,3.92330943 L6.57407631,3.34724115 C6.55015256,3.28323357 6.57706677,3.26545368 6.63313805,3.30528063 L7.14301287,3.67865821 C7.19983176,3.71990754 7.26188398,3.69999407 7.28206964,3.63527529 L7.46374057,3.04853909 Z" id="Path" fill="#F9D657" fill-rule="nonzero"></path>
                </g>
                <g id="Английский">
                    <mask id="mask-2" fill="white">
                        <use xlink:href="#path-1"></use>
                    </mask>
                    <use id="Rectangle" fill="#4356AB" fill-rule="nonzero" xlink:href="#path-1"></use>
                    <rect id="Rectangle" fill="#FFFFFF" mask="url(#mask-2)" transform="translate(10.553949, 7.045969) rotate(34.000000) translate(-10.553949, -7.045969) " x="-4.4460506" y="5.0459687" width="30" height="4"></rect>
                    <rect id="Rectangle" fill="#F14D5E" mask="url(#mask-2)" transform="translate(5.174957, 3.608466) rotate(34.000000) translate(-5.174957, -3.608466) " x="-2.32504304" y="3.10846556" width="15" height="1"></rect>
                    <rect id="Rectangle" fill="#F14D5E" mask="url(#mask-2)" transform="translate(20.497378, 13.608466) rotate(34.000000) translate(-20.497378, -13.608466) " x="12.9973782" y="13.1084656" width="15" height="1"></rect>
                    <rect id="Rectangle" fill="#FFFFFF" mask="url(#mask-2)" transform="translate(10.553949, 8.045969) scale(-1, 1) rotate(34.000000) translate(-10.553949, -8.045969) " x="-4.4460506" y="6.0459687" width="30" height="4"></rect>
                    <rect id="Rectangle" fill="#F14D5E" mask="url(#mask-2)" transform="translate(2.497378, 13.608466) scale(1, -1) rotate(34.000000) translate(-2.497378, -13.608466) " x="-5.00262175" y="13.1084656" width="15" height="1"></rect>
                    <rect id="Rectangle" fill="#F14D5E" mask="url(#mask-2)" transform="translate(16.174957, 3.608466) scale(1, -1) rotate(34.000000) translate(-16.174957, -3.608466) " x="8.67495696" y="3.10846556" width="15" height="1"></rect>
                    <rect id="Rectangle" fill="#FFFFFF" mask="url(#mask-2)" x="8" y="0" width="5" height="15"></rect>
                    <rect id="Rectangle" fill="#FFFFFF" mask="url(#mask-2)" x="0" y="5" width="21" height="5"></rect>
                    <rect id="Rectangle" fill="#F14D5E" mask="url(#mask-2)" x="0" y="6" width="21" height="3"></rect>
                    <rect id="Rectangle" fill="#F14D5E" mask="url(#mask-2)" x="9" y="0" width="3" height="15"></rect>
                </g>
                <g id="Турецкий" transform="translate(0.000000, 175.000000)">
                    <polygon id="Path" fill="#F14D5E" points="0 0 21 0 21 15 0 15"></polygon>
                    <path d="M11.6490263,8.95530765 C11.5075149,9.04889906 11.4301136,8.99069936 11.4762416,8.82553805 L11.6474627,8.21129527 C11.6935907,8.04613396 11.6302624,7.8156946 11.506733,7.70008169 L11.0728166,7.29111082 C10.9500691,7.17471142 10.9860334,7.08033353 11.1541271,7.08112001 L11.7827195,7.08583891 C11.9508132,7.08741187 12.1329799,6.95528282 12.1869263,6.79248096 L12.4097482,6.12161145 C12.4629128,5.95880958 12.5489142,5.95959606 12.6005151,6.12318441 L12.8123914,6.7995593 C12.8632104,6.96236116 13.0422498,7.10314152 13.2111254,7.11021986 L13.8514452,7.14010619 C14.019539,7.14797102 14.0492486,7.24234891 13.9186827,7.35088349 L13.4151833,7.76457325 C13.2846175,7.87310782 13.2103435,8.09725531 13.2509988,8.26320311 L13.3862556,8.81452729 C13.4269108,8.98047509 13.3456003,9.03946127 13.2056525,8.94429689 L12.6974622,8.60060407 C12.5575144,8.50622618 12.3276559,8.5054397 12.1861445,8.59903111 L11.6490263,8.95530765 Z" id="Path" fill="#FFFFFF" fill-rule="nonzero"></path>
                    <path d="M12.6705185,10.7656831 C12.6650128,10.767732 12.658406,10.7697808 12.6529003,10.7728542 L12.6529003,10.7718297 C12.4613023,10.8599317 12.2586929,10.9336914 12.0472744,10.9920845 C10.0211806,11.5504049 7.91250141,10.4624486 7.3377074,8.5651839 C7.22759361,8.20048292 7.18244695,7.8296353 7.19566061,7.46800764 C7.20006516,7.10535554 7.26393116,6.73758123 7.39166316,6.37492913 C8.05785162,4.49200665 10.2182843,3.45732128 12.2168496,4.06583921 C12.4249647,4.12935455 12.6242707,4.20926095 12.8114641,4.30043619 L12.8114641,4.30043619 C12.8169698,4.30248507 12.8224755,4.3055584 12.8290823,4.30658284 C12.8973529,4.3280961 12.970028,4.29224066 12.9931519,4.22872532 C13.0118712,4.17647884 12.9909496,4.12218346 12.945803,4.09145024 C12.4811228,3.7103582 11.9294526,3.40917256 11.3051074,3.21862654 C8.79671518,2.45541802 6.08351128,3.75440916 5.24664644,6.11881889 C5.09138599,6.55727962 5.01210406,7.001887 5.00109268,7.44034773 C4.99118244,7.87880846 5.04844161,8.32444028 5.18278044,8.76802321 C5.90292466,11.1508729 8.55116142,12.5164527 11.0958912,11.8167595 C11.7290455,11.6415801 12.2950304,11.3547366 12.77843,10.9849135 C12.8246778,10.9562291 12.8489028,10.9019337 12.8323858,10.8486628 C12.8114641,10.784123 12.7398902,10.7482676 12.6705185,10.7656831 Z" id="Path" fill="#FFFFFF" fill-rule="nonzero"></path>
                </g>
                <g id="Итальянский" transform="translate(0.000000, 150.000000)">
                    <polygon id="Path" fill="#ECF2FB" points="7 0 14 0 14 15 7 15"></polygon>
                    <polygon id="Path" fill="#50AC5F" points="0 0 7 0 7 15 0 15"></polygon>
                    <polygon id="Path" fill="#F14D5E" points="14 0 21 0 21 15 14 15"></polygon>
                </g>
                <g id="Французкий" transform="translate(0.000000, 125.000000)">
                    <polygon id="Path" fill="#ECF2FB" points="7 0 14 0 14 15 7 15"></polygon>
                    <polygon id="Path" fill="#F14D5E" points="14 0 21 0 21 15 14 15"></polygon>
                    <polygon id="Path" fill="#4356AB" points="0 0 7 0 7 15 0 15"></polygon>
                </g>
                <g id="испанский" transform="translate(0.000000, 25.000000)">
                    <polygon id="Path" fill="#FDCA4A" points="0 0 21 0 21 15 0 15"></polygon>
                    <polygon id="Path" fill="#F14D5E" points="0 12 21 12 21 15 0 15"></polygon>
                    <polygon id="Path" fill="#F14D5E" points="0 0 21 0 21 3 0 3"></polygon>
                    <path d="M6.00146843,5.46937152 C5.35242291,5.46937152 5.00195791,5 5.00195791,5 C5.00195791,5 4.65051395,5.46937152 4.00146843,5.46937152 C3.40430739,5.46937152 3,5.07955449 3,5.07955449 L3,7.62728719 C3.0186001,9.30588703 5,10 5,10 C5,10 7,9.30688146 7,7.62728719 L7,5.07955449 C6.99902105,5.08054893 6.59862947,5.46937152 6.00146843,5.46937152 Z" id="Path" fill="#F14D5E" fill-rule="nonzero"></path>
                </g>
                <g id="Немецкий" transform="translate(0.000000, 100.000000)">
                    <polygon id="Path" fill="#F14D5E" points="0 5 21 5 21 10 0 10"></polygon>
                    <polygon id="Path" fill="#F8BA37" points="0 10 21 10 21 15 0 15"></polygon>
                    <polygon id="Path" fill="#434B58" points="0 0 21 0 21 5 0 5"></polygon>
                </g>
                <g id="Португальский" transform="translate(0.000000, 50.000000)">
                    <polygon id="Path" fill="#F14D5E" points="0 6.39488462e-14 21 6.39488462e-14 21 15 0 15"></polygon>
                    <polygon id="Path" fill="#50AC5F" points="0 6.39488462e-14 7 6.39488462e-14 7 15 0 15"></polygon>
                    <path d="M7.00159109,5 C8.10421639,5 9,5.89419252 9,7 C9,8.10580748 8.10421639,9 7.00159109,9 C5.89578361,9 5,8.10580748 5,7 C5,5.89419252 5.89578361,5 7.00159109,5 Z" id="Path" fill="#FDC34A"></path>
                </g>
                <g id="Русский" transform="translate(0.000000, 75.000000)">
                    <polygon id="Path" fill="#ECF2FB" points="0 0 21 0 21 5 0 5"></polygon>
                    <polygon id="Path" fill="#F14D5E" points="0 10 21 10 21 15 0 15"></polygon>
                    <polygon id="Path" fill="#4D84C9" points="0 10 21 10 21 5 0 5"></polygon>
                </g>
                <g id="Тайвань" transform="translate(0.000000, 875.000000)">
                    <polygon id="Path" fill="#F14D5E" points="0 -2.27373675e-13 21 -2.27373675e-13 21 15 0 15"></polygon>
                    <polygon id="Path" fill="#4356AB" points="0 0 12 0 12 8 0 8"></polygon>
                    <g id="Group-2" transform="translate(3.000000, 1.000000)" fill="#FFFFFF">
                        <circle id="Oval" stroke="#4356AB" cx="3" cy="3" r="1.5"></circle>
                        <rect id="Rectangle" x="3" y="1" width="1" height="1" rx="0.5"></rect>
                        <rect id="Rectangle" x="4" y="3" width="1" height="1" rx="0.5"></rect>
                        <rect id="Rectangle" x="2" y="4" width="1" height="1" rx="0.5"></rect>
                        <rect id="Rectangle" x="1" y="2" width="1" height="1" rx="0.5"></rect>
                    </g>
                </g>
                <g id="Словацкий" transform="translate(0.000000, 900.000000)">
                    <polygon id="Path" fill="#F14D5E" points="0 10 21 10 21 15 0 15"></polygon>
                    <polygon id="Path" fill="#4D84C9" points="0 5 21 5 21 10 0 10"></polygon>
                    <polygon id="Path" fill="#ECF2FB" points="0 -2.27373675e-13 21 -2.27373675e-13 21 5 0 5"></polygon>
                    <path d="M4,2 L13,2 C13,4 13,5.9 13,7.7 C13,10.4 10.8762107,13 8.59228516,13 C6.30835957,13 4,10.4 4,7.7 C4,5.9 4,4 4,2 Z" id="Path" fill="#F14D5E"></path>
                    <rect id="Rectangle" fill="#FFFFFF" x="8" y="4" width="1" height="6" rx="0.5"></rect>
                    <rect id="Rectangle" fill="#FFFFFF" x="7" y="5" width="3" height="1" rx="0.5"></rect>
                    <rect id="Rectangle" fill="#FFFFFF" x="7" y="7" width="3" height="1" rx="0.5"></rect>
                    <path d="M8.65795898,12.3193359 C9.70922852,12.3193359 9.73062791,12.1479122 10.2255859,11.7402344 C10.720544,11.3325565 9.88071187,9.5 8.5,9.5 C7.11928813,9.5 6.046875,11.2731934 6.68286133,11.7402344 C7.31884766,12.2072754 7.60668945,12.3193359 8.65795898,12.3193359 Z" id="Oval" fill="#4D84C9"></path>
                    <circle id="Oval" fill="#4D84C9" cx="8.5" cy="10.5" r="1.5"></circle>
                    <path d="M10.720544,11.3325565 C11.2728287,11.3325565 11.4294434,11.218563 11.4294434,10.6662783 C11.4294434,10.1139935 11.5522847,10 11,10 C10.4477153,10 10,10.4477153 10,11 C10,11.5522847 10.1682592,11.3325565 10.720544,11.3325565 Z" id="Oval" fill="#4D84C9"></path>
                    <path d="M6.17236328,11.25 C6.72464803,11.25 7,11.5522847 7,11 C7,10.4477153 6.55228475,10 6,10 C5.44771525,10 5.86574259,10.1139935 5.86574259,10.6662783 C5.86574259,11.218563 5.62007853,11.25 6.17236328,11.25 Z" id="Oval" fill="#4D84C9"></path>
                    <path d="M4,2 L13,2 C13,4 13,5.9 13,7.7 C13,10.4 10.8762107,13 8.59228516,13 C6.30835957,13 4,10.4 4,7.7 C4,5.9 4,4 4,2 Z M5,3 C5,4.63636364 5,6.19090909 5,7.66363636 C5,9.87272727 6.79539077,12 8.57177734,12 C10.3481639,12 12,9.87272727 12,7.66363636 C12,6.19090909 12,4.63636364 12,3 L5,3 Z" id="Combined-Shape" fill="#FFFFFF"></path>
                </g>
                <g id="Болгарский" transform="translate(0.000000, 1075.000000)">
                    <polygon id="Path" fill="#F14D5E" points="0 10 21 10 21 15 0 15"></polygon>
                    <polygon id="Path" fill="#52B15C" points="0 5 21 5 21 10 0 10"></polygon>
                    <polygon id="Path" fill="#ECF2FB" points="0 -2.27373675e-13 21 -2.27373675e-13 21 5 0 5"></polygon>
                </g>
                <g id="Корейский" transform="translate(0.000000, 1100.000000)">
                    <polygon id="Path" fill="#ECF2FB" points="0 -2.27373675e-13 21 -2.27373675e-13 21 15 0 15"></polygon>
                    <circle id="Oval" fill="#F14D5E" cx="10.5" cy="7.5" r="4.5"></circle>
                    <path d="M10.5,11 C12.9852814,11 15,11.1213203 15,7.01446533 C11,2.51446533 10.0524902,11.5144653 6,7.01446533 C6,9.43804932 8.01471863,11 10.5,11 Z" id="Oval" fill="#ECF2FB"></path>
                    <path d="M10.5,12 C12.9852814,12 15,9.98528137 15,7.5 C11,3 10.0524902,12 6,7.5 C6,9.98528137 8.01471863,12 10.5,12 Z" id="Oval" fill="#4356AB"></path>
                    <path d="M15.9142136,2.70710678 L18.0355339,4.82842712 C18.2307961,5.02368927 18.2307961,5.34027176 18.0355339,5.53553391 C17.8402718,5.73079605 17.5236893,5.73079605 17.3284271,5.53553391 L15.2071068,3.41421356 C15.0118446,3.21895142 15.0118446,2.90236893 15.2071068,2.70710678 C15.4023689,2.51184464 15.7189514,2.51184464 15.9142136,2.70710678 Z M16.9142136,1.70710678 L19.0355339,3.82842712 C19.2307961,4.02368927 19.2307961,4.34027176 19.0355339,4.53553391 C18.8402718,4.73079605 18.5236893,4.73079605 18.3284271,4.53553391 L16.2071068,2.41421356 C16.0118446,2.21895142 16.0118446,1.90236893 16.2071068,1.70710678 C16.4023689,1.51184464 16.7189514,1.51184464 16.9142136,1.70710678 Z" id="Combined-Shape" fill="#40464E"></path>
                    <path d="M15.9142136,10.7071068 L18.0355339,12.8284271 C18.2307961,13.0236893 18.2307961,13.3402718 18.0355339,13.5355339 C17.8402718,13.7307961 17.5236893,13.7307961 17.3284271,13.5355339 L15.2071068,11.4142136 C15.0118446,11.2189514 15.0118446,10.9023689 15.2071068,10.7071068 C15.4023689,10.5118446 15.7189514,10.5118446 15.9142136,10.7071068 Z M16.9142136,9.70710678 L19.0355339,11.8284271 C19.2307961,12.0236893 19.2307961,12.3402718 19.0355339,12.5355339 C18.8402718,12.7307961 18.5236893,12.7307961 18.3284271,12.5355339 L16.2071068,10.4142136 C16.0118446,10.2189514 16.0118446,9.90236893 16.2071068,9.70710678 C16.4023689,9.51184464 16.7189514,9.51184464 16.9142136,9.70710678 Z" id="Combined-Shape" fill="#40464E" transform="translate(17.121320, 11.621320) scale(1, -1) translate(-17.121320, -11.621320) "></path>
                    <path d="M2.91421356,10.7071068 L5.03553391,12.8284271 C5.23079605,13.0236893 5.23079605,13.3402718 5.03553391,13.5355339 C4.84027176,13.7307961 4.52368927,13.7307961 4.32842712,13.5355339 L2.20710678,11.4142136 C2.01184464,11.2189514 2.01184464,10.9023689 2.20710678,10.7071068 C2.40236893,10.5118446 2.71895142,10.5118446 2.91421356,10.7071068 Z M3.91421356,9.70710678 L6.03553391,11.8284271 C6.23079605,12.0236893 6.23079605,12.3402718 6.03553391,12.5355339 C5.84027176,12.7307961 5.52368927,12.7307961 5.32842712,12.5355339 L3.20710678,10.4142136 C3.01184464,10.2189514 3.01184464,9.90236893 3.20710678,9.70710678 C3.40236893,9.51184464 3.71895142,9.51184464 3.91421356,9.70710678 Z" id="Combined-Shape" fill="#40464E" transform="translate(4.121320, 11.621320) scale(-1, -1) translate(-4.121320, -11.621320) "></path>
                    <path d="M2.91421356,2.70710678 L5.03553391,4.82842712 C5.23079605,5.02368927 5.23079605,5.34027176 5.03553391,5.53553391 C4.84027176,5.73079605 4.52368927,5.73079605 4.32842712,5.53553391 L2.20710678,3.41421356 C2.01184464,3.21895142 2.01184464,2.90236893 2.20710678,2.70710678 C2.40236893,2.51184464 2.71895142,2.51184464 2.91421356,2.70710678 Z M3.91421356,1.70710678 L6.03553391,3.82842712 C6.23079605,4.02368927 6.23079605,4.34027176 6.03553391,4.53553391 C5.84027176,4.73079605 5.52368927,4.73079605 5.32842712,4.53553391 L3.20710678,2.41421356 C3.01184464,2.21895142 3.01184464,1.90236893 3.20710678,1.70710678 C3.40236893,1.51184464 3.71895142,1.51184464 3.91421356,1.70710678 Z" id="Combined-Shape" fill="#40464E" transform="translate(4.121320, 3.621320) scale(-1, 1) translate(-4.121320, -3.621320) "></path>
                </g>
                <g id="Македонский" transform="translate(0.000000, 1150.000000)">
                    <mask id="mask-4" fill="white">
                        <use xlink:href="#path-3"></use>
                    </mask>
                    <use id="Path" fill="#F14D5E" xlink:href="#path-3"></use>
                    <circle id="Oval" fill="#F9D657" mask="url(#mask-4)" cx="10.5" cy="7.5" r="2.5"></circle>
                    <polygon id="Rectangle" fill="#F9D657" mask="url(#mask-4)" points="14 7 21 6 21 9 14 8"></polygon>
                    <polygon id="Rectangle" fill="#F9D657" mask="url(#mask-4)" transform="translate(16.560660, 13.560660) rotate(45.000000) translate(-16.560660, -13.560660) " points="11.5606602 13.0606602 21.5606602 12.0606602 21.5606602 15.0606602 11.5606602 14.0606602"></polygon>
                    <polygon id="Rectangle" fill="#F9D657" mask="url(#mask-4)" transform="translate(16.560660, 1.560660) scale(1, -1) rotate(45.000000) translate(-16.560660, -1.560660) " points="11.5606602 1.06066017 21.5606602 0.0606601718 21.5606602 3.06066017 11.5606602 2.06066017"></polygon>
                    <polygon id="Rectangle" fill="#F9D657" mask="url(#mask-4)" transform="translate(3.560660, 1.560660) scale(-1, -1) rotate(45.000000) translate(-3.560660, -1.560660) " points="-1.43933983 1.06066017 8.56066017 0.0606601718 8.56066017 3.06066017 -1.43933983 2.06066017"></polygon>
                    <polygon id="Rectangle" fill="#F9D657" mask="url(#mask-4)" transform="translate(3.560660, 13.560660) scale(-1, 1) rotate(45.000000) translate(-3.560660, -13.560660) " points="-1.43933983 13.0606602 8.56066017 12.0606602 8.56066017 15.0606602 -1.43933983 14.0606602"></polygon>
                    <polygon id="Rectangle" fill="#F9D657" mask="url(#mask-4)" transform="translate(10.500000, 2.000000) rotate(-90.000000) translate(-10.500000, -2.000000) " points="8.5 1.5 12.5 0.5 12.5 3.5 8.5 2.5"></polygon>
                    <polygon id="Rectangle" fill="#F9D657" mask="url(#mask-4)" transform="translate(10.500000, 13.000000) scale(1, -1) rotate(-90.000000) translate(-10.500000, -13.000000) " points="8.5 12.5 12.5 11.5 12.5 14.5 8.5 13.5"></polygon>
                    <polygon id="Rectangle" fill="#F9D657" mask="url(#mask-4)" transform="translate(3.500000, 7.500000) scale(-1, 1) translate(-3.500000, -7.500000) " points="0 7 7 6 7 9 0 8"></polygon>
                </g>
                <g id="Саудовская-Аравия" transform="translate(0.000000, 1125.000000)">
                    <polygon id="Path" fill="#52B15C" points="0 0 21 0 21 15 0 15"></polygon>
                    <polygon id="Fill-37" fill="#FFFFFE" points="15 13 16 13 16 8 15 8"></polygon>
                    <polygon id="Fill-37" fill="#FFFFFE" points="2 6 3 6 3 3 2 3"></polygon>
                    <polygon id="Fill-37" fill="#FFFFFE" points="15 5 16 5 16 3 15 3"></polygon>
                    <polygon id="Fill-37" fill="#FFFFFE" points="17 5 18 5 18 3 17 3"></polygon>
                    <polygon id="Fill-37" fill="#FFFFFE" points="14 8 15 8 15 6 14 6"></polygon>
                    <polygon id="Fill-37" fill="#FFFFFE" points="17 7 19 7 19 6 17 6"></polygon>
                    <polygon id="Fill-37" fill="#FFFFFE" points="9 8 10 8 10 5 9 5"></polygon>
                    <polygon id="Fill-37" fill="#FFFFFE" points="9 4 10 4 10 2 9 2"></polygon>
                    <polygon id="Fill-37" fill="#FFFFFE" points="9 4 10 4 10 2 9 2"></polygon>
                    <polygon id="Fill-37" fill="#FFFFFE" points="11 8 12 8 12 6 11 6"></polygon>
                    <polygon id="Fill-37" fill="#FFFFFE" points="11 5 12 5 12 3 11 3"></polygon>
                    <polygon id="Fill-37" fill="#FFFFFE" points="4 4 5 4 5 2 4 2"></polygon>
                    <polygon id="Fill-37" fill="#FFFFFE" points="4 7 5 7 5 5 4 5"></polygon>
                    <polygon id="Fill-37" fill="#FFFFFE" points="6 8 7 8 7 6 6 6"></polygon>
                    <polygon id="Fill-37" fill="#FFFFFE" points="7 5 8 5 8 2 7 2"></polygon>
                    <polygon id="Fill-37" fill="#FFFFFE" points="13 5 14 5 14 2 13 2"></polygon>
                    <polygon id="Fill-37" fill="#FFFFFE" points="2 8 4 8 4 7 2 7"></polygon>
                    <polygon id="Fill-37" fill="#FFFFFE" points="7 7 9 7 9 6 7 6"></polygon>
                    <polygon id="Fill-37" fill="#FFFFFE" points="4 5 6 5 6 4 4 4"></polygon>
                    <polygon id="Fill-37" fill="#FFFFFE" points="13 3 15 3 15 2 13 2"></polygon>
                    <polygon id="Fill-37" fill="#FFFFFE" points="11 7 13 7 13 6 11 6"></polygon>
                    <polygon id="Fill-37" fill="#FFFFFE" points="15 6 17 6 17 5 15 5"></polygon>
                    <polygon id="Fill-37" fill="#FFFFFE" points="9 4 11 4 11 3 9 3"></polygon>
                    <path d="M2,10 L18.3333333,10 C18.7013333,10 19,10 19,10 C19,10 18.7013333,11 18.3333333,11 L2.66666667,11 C2.29833333,11 2,10 2,10" id="Fill-38" fill="#FFFFFE"></path>
                </g>
                <g id="Сербский" transform="translate(0.000000, 925.000000)">
                    <polygon id="Path" fill="#F14D5E" points="0 -2.27373675e-13 21 -2.27373675e-13 21 5 0 5"></polygon>
                    <polygon id="Path" fill="#4D84C9" points="0 5 21 5 21 10 0 10"></polygon>
                    <polygon id="Path" fill="#ECF2FB" points="0 10 21 10 21 15 0 15"></polygon>
                    <path d="M4,5 L12,5 C12,6.63636364 12,8.19090909 12,9.66363636 C12,11.8727273 10.1121873,14 8.08203125,14 C6.05187517,14 4,11.8727273 4,9.66363636 C4,8.19090909 4,6.63636364 4,5 Z" id="Path" fill="#F14D5E"></path>
                    <rect id="Rectangle" fill="#FDCA4A" x="6" y="3" width="4" height="2" rx="1"></rect>
                    <circle id="Oval" fill="#FFFFFF" cx="8" cy="10" r="1"></circle>
                    <circle id="Oval" fill="#FFFFFF" cx="7" cy="12" r="1"></circle>
                    <circle id="Oval" fill="#FFFFFF" cx="9" cy="12" r="1"></circle>
                    <circle id="Oval" fill="#FFFFFF" cx="8" cy="8" r="1"></circle>
                    <circle id="Oval" fill="#FFFFFF" cx="6" cy="7" r="1"></circle>
                    <circle id="Oval" fill="#FFFFFF" cx="10" cy="7" r="1"></circle>
                </g>
                <g id="Хорватский" transform="translate(0.000000, 950.000000)">
                    <polygon id="Path" fill="#F14D5E" points="0 -2.27373675e-13 21 -2.27373675e-13 21 5 0 5"></polygon>
                    <polygon id="Path" fill="#ECF2FB" points="0 5 21 5 21 10 0 10"></polygon>
                    <polygon id="Path" fill="#4D84C9" points="0 10 21 10 21 15 0 15"></polygon>
                    <g id="shield" transform="translate(6.000000, 4.000000)">
                        <mask id="mask-6" fill="white">
                            <use xlink:href="#path-5"></use>
                        </mask>
                        <use id="Path" fill="#F14D5E" xlink:href="#path-5"></use>
                        <circle id="Oval" fill="#FFFFFF" mask="url(#mask-6)" cx="3" cy="1" r="1"></circle>
                        <circle id="Oval" fill="#FFFFFF" mask="url(#mask-6)" cx="5" cy="3" r="1"></circle>
                        <circle id="Oval" fill="#FFFFFF" mask="url(#mask-6)" cx="9" cy="3" r="1"></circle>
                        <circle id="Oval" fill="#FFFFFF" mask="url(#mask-6)" cx="1" cy="3" r="1"></circle>
                        <circle id="Oval" fill="#FFFFFF" mask="url(#mask-6)" cx="1" cy="7" r="1"></circle>
                        <circle id="Oval" fill="#FFFFFF" mask="url(#mask-6)" cx="3" cy="5" r="1"></circle>
                        <circle id="Oval" fill="#FFFFFF" mask="url(#mask-6)" cx="7" cy="5" r="1"></circle>
                        <circle id="Oval" fill="#FFFFFF" mask="url(#mask-6)" cx="5" cy="7" r="1"></circle>
                        <circle id="Oval" fill="#FFFFFF" mask="url(#mask-6)" cx="9" cy="7" r="1"></circle>
                        <circle id="Oval" fill="#FFFFFF" mask="url(#mask-6)" cx="7" cy="1" r="1"></circle>
                    </g>
                    <ellipse id="Oval" fill="#32B0DE" cx="10.5" cy="3" rx="1" ry="1"></ellipse>
                    <ellipse id="Oval" fill="#4356AB" cx="12.5" cy="3" rx="1" ry="1"></ellipse>
                    <ellipse id="Oval" fill="#4356AB" cx="8.5" cy="3" rx="1" ry="1"></ellipse>
                </g>
                <g id="Словенский" transform="translate(0.000000, 975.000000)">
                    <polygon id="Path" fill="#ECF2FB" points="0 0 21 0 21 5 0 5"></polygon>
                    <polygon id="Path" fill="#F14D5E" points="0 10 21 10 21 15 0 15"></polygon>
                    <polygon id="Path" fill="#4D84C9" points="0 5 21 5 21 10 0 10"></polygon>
                    <g id="Oval" transform="translate(3.000000, 2.000000)">
                        <mask id="mask-8" fill="white">
                            <use xlink:href="#path-7"></use>
                        </mask>
                        <use id="Mask" fill="#4D84C9" xlink:href="#path-7"></use>
                        <rect id="Rectangle" fill="#FDCA4A" mask="url(#mask-8)" x="3" y="2" width="1" height="1" rx="0.5"></rect>
                        <rect id="Rectangle" fill="#FDCA4A" mask="url(#mask-8)" x="2" y="1" width="1" height="1" rx="0.5"></rect>
                        <rect id="Rectangle" fill="#FDCA4A" mask="url(#mask-8)" x="4" y="1" width="1" height="1" rx="0.5"></rect>
                        <circle fill="#FFFFFF" mask="url(#mask-8)" cx="3.5" cy="4.5" r="1"></circle>
                        <circle fill="#FFFFFF" mask="url(#mask-8)" cx="2.5" cy="5.5" r="1"></circle>
                        <circle fill="#FFFFFF" mask="url(#mask-8)" cx="1.5" cy="6.5" r="1"></circle>
                        <circle fill="#FFFFFF" mask="url(#mask-8)" cx="1.5" cy="4.5" r="1"></circle>
                        <circle fill="#FFFFFF" mask="url(#mask-8)" cx="5.5" cy="4.5" r="1"></circle>
                        <circle fill="#FFFFFF" mask="url(#mask-8)" cx="2.5" cy="6.5" r="1"></circle>
                        <circle fill="#FFFFFF" mask="url(#mask-8)" cx="3.5" cy="6.5" r="1"></circle>
                        <circle fill="#FFFFFF" mask="url(#mask-8)" cx="4.5" cy="6.5" r="1"></circle>
                        <circle fill="#FFFFFF" mask="url(#mask-8)" cx="5.5" cy="6.5" r="1"></circle>
                        <circle fill="#FFFFFF" mask="url(#mask-8)" cx="6.5" cy="5.5" r="1"></circle>
                        <circle fill="#FFFFFF" mask="url(#mask-8)" cx="0.5" cy="5.5" r="1"></circle>
                        <circle fill="#FFFFFF" mask="url(#mask-8)" cx="4.5" cy="5.5" r="1"></circle>
                        <circle fill="#FFFFFF" mask="url(#mask-8)" cx="5.5" cy="5.5" r="1"></circle>
                        <circle fill="#FFFFFF" mask="url(#mask-8)" cx="1.5" cy="5.5" r="1"></circle>
                        <circle fill="#FFFFFF" mask="url(#mask-8)" cx="3.5" cy="5.5" r="1"></circle>
                    </g>
                </g>
                <g id="Исландский" transform="translate(0.000000, 1000.000000)">
                    <polygon id="Path" fill="#4D84C9" points="0 0 21 0 21 15 0 15"></polygon>
                    <rect id="Rectangle" fill="#ECF2FB" x="5" y="0" width="3" height="15"></rect>
                    <rect id="Rectangle" fill="#ECF2FB" x="0" y="6" width="21" height="3"></rect>
                    <rect id="Rectangle" fill="#F14D5E" x="0" y="7" width="21" height="1"></rect>
                    <rect id="Rectangle" fill="#F14D5E" x="6" y="0" width="1" height="15"></rect>
                </g>
                <g id="Боснийский" transform="translate(0.000000, 1025.000000)">
                    <polygon id="Path" fill="#4D84C9" points="0 0 21 0 21 15 0 15"></polygon>
                    <polygon id="Rectangle" fill="#FDCA4A" points="3 0 18 0 18 15"></polygon>
                    <polygon id="Oval" fill="#ECF2FB" points="3 3 4 2 3 1 2 2"></polygon>
                    <polygon id="Oval" fill="#ECF2FB" points="1 1 2 5.55111512e-16 1 -3.88578059e-16 0 5.55111512e-16"></polygon>
                    <polygon id="Oval" fill="#ECF2FB" points="5 5 6 4 5 3 4 4"></polygon>
                    <polygon id="Oval" fill="#ECF2FB" points="7 7 8 6 7 5 6 6"></polygon>
                    <polygon id="Oval" fill="#ECF2FB" points="9 9 10 8 9 7 8 8"></polygon>
                    <polygon id="Oval" fill="#ECF2FB" points="11 11 12 10 11 9 10 10"></polygon>
                    <polygon id="Oval" fill="#ECF2FB" points="15 15 16 14 15 13 14 14"></polygon>
                    <polygon id="Oval" fill="#ECF2FB" points="13 13 14 12 13 11 12 12"></polygon>
                </g>
                <g id="Азербайджанский" transform="translate(0.000000, 1050.000000)">
                    <polygon id="Path" fill="#52B15C" points="0 10 21 10 21 15 0 15"></polygon>
                    <polygon id="Path" fill="#F14D5E" points="0 5 21 5 21 10 0 10"></polygon>
                    <polygon id="Path" fill="#32B0DE" points="0 0 21 0 21 5 0 5"></polygon>
                    <polygon id="Oval" fill="#ECF2FB" points="13.5 9 15 7.5 13.5 6 12 7.5"></polygon>
                    <path d="M13,7.50045121 C12.9997561,8.88095569 11.8805615,9.99999994 10.5,9.99999994 C9.11928813,9.99999994 8,8.88071182 8,7.49999997 C8,6.11928811 9.11928813,5 10.5,5 C11.8807119,5 13,6.11928811 13,7.49999997 C12.9997562,9.43324047 11.4328463,11 9.50000005,11 C7.5670034,11 6,9.43299662 6,7.5 C6,5.56700338 7.5670034,4 9.50000005,4 C11.4329967,4 13.0000001,5.56700338 13.0000001,7.5 Z" id="Combined-Shape" fill="#FFFFFF"></path>
                </g>
            </g>
        </g>
    </g>
</svg>