<?xml version="1.0" encoding="utf-8"?>
<!-- Generator: Adobe Illustrator 16.0.0, SVG Export Plug-In . SVG Version: 6.00 Build 0)  -->
<!DOCTYPE svg PUBLIC "-//W3C//DTD SVG 1.1//EN" "http://www.w3.org/Graphics/SVG/1.1/DTD/svg11.dtd">
<svg version="1.1" id="Layer_1" xmlns="http://www.w3.org/2000/svg" xmlns:xlink="http://www.w3.org/1999/xlink" x="0px" y="0px"
	 width="100.708px" height="100.695px" viewBox="0 0 100.708 100.695" enable-background="new 0 0 100.708 100.695"
	 xml:space="preserve">
<path fill="#BBBBBB" d="M30.875,27.214h-6.918c-2.658,0-4.027,0.456-4.027,2.661v2.508c0,2.204,1.369,2.66,4.027,2.66h1.598
	c0.987,0,1.442,0.532,1.442,2.053v32.84c0,2.66,0.457,4.027,2.662,4.027h2.583c2.205,0,2.662-1.367,2.662-4.027V29.875
	C34.906,27.67,33.535,27.214,30.875,27.214z"/>
<path fill="#BBBBBB" d="M78.297,4.409C75.333,1.52,71.61,0,67.123,0H33.371c-4.484,0-8.286,1.521-11.174,4.409L4.332,22.197
	C1.521,25.01,0,28.735,0,32.84v34.283c0,4.713,1.598,8.361,4.789,11.479l16.952,16.951c3.344,3.346,7.068,4.865,11.858,4.789h33.296
	c4.637,0,8.438-1.369,11.857-4.789l16.952-16.951c3.116-3.117,4.789-6.844,4.789-11.479V32.84c0-4.105-1.521-7.83-4.333-10.643
	L78.297,4.409z M93.882,44.546c0,1.14-0.532,1.748-1.597,1.748h-5.093v-3.573c0-2.66-0.381-4.028-2.661-4.028H82.25
	c-2.279,0-2.66,1.369-2.66,4.028v3.573h-3.571c-2.66,0-4.029,0.38-4.029,2.661v2.432c0,2.279,1.369,2.66,4.029,2.66h3.571v3.572
	c0,2.662,0.381,4.029,2.66,4.029h2.281c2.28,0,2.661-1.367,2.661-4.029v-3.572h5.093c0.988,0,1.521,0.533,1.597,1.521v11.555
	c0,2.812-0.837,4.941-2.812,6.842L74.118,90.917c-1.978,1.979-4.182,2.889-6.917,2.889H33.297c-2.736,0-4.94-0.91-6.917-2.889
	L9.429,73.965c-1.978-1.977-2.892-4.027-2.813-6.842V33.6c0-2.812,0.913-5.246,2.966-7.297L26.837,8.819
	c1.748-1.749,3.952-2.28,6.461-2.28h33.904c2.508,0,4.712,0.532,6.461,2.28l17.256,17.484c1.977,2.052,2.965,4.485,2.965,7.297
	v10.946H93.882z"/>
<path fill="#BBBBBB" d="M63.93,49.715c4.258-3.116,4.334-6.31,4.334-8.894v-2.584c-0.456-8.59-3.345-11.859-13.304-11.859
	c-9.957,0-12.846,3.269-13.303,11.859v2.584c0,2.584,0.076,5.778,4.333,8.894c-5.093,1.977-5.473,6.311-5.473,12.012
	c0,8.438,2.964,12.617,14.441,12.846c11.479-0.229,14.444-4.408,14.444-12.846C69.406,56.024,69.026,51.69,63.93,49.715z
	 M54.96,33.371c4.183,0,5.854,1.52,5.854,6.614c0,4.94-1.673,6.614-5.854,6.614c-4.18,0-5.853-1.673-5.853-6.614
	C49.109,34.891,50.781,33.371,54.96,33.371z M54.96,67.35c-4.863,0-6.612-1.9-6.612-6.689s1.749-6.994,6.612-6.994
	c4.865,0,6.614,2.205,6.614,6.994S59.826,67.35,54.96,67.35z"/>
</svg>
