<svg xmlns="http://www.w3.org/2000/svg" width="100" height="100" baseProfile="full" version="1.2">
            <defs>
                <mask id="userpicmask-100" maskUnits="userSpaceOnUse" maskContentUnits="userSpaceOnUse">
                    <svg width="100" height="100" version="1.1" xmlns:xlink="https://www.w3.org/1999/xlink" xml:space="preserve">
                        <path fill="#FFFFFF" d="M85.2682829,28.3729392 C84.7624461,26.6184002 83.9518102,24.9404977 82.9183232,23.4532518 C81.8812988,21.9697442 80.6255501,20.6675473 79.1263159,19.7479096 L49.5796697,1.7196476 C48.5780185,1.10967115 47.489703,0.68910516 46.3630665,0.410597017 C45.2358405,0.133334995 44.0691143,0 42.9023882,0 C41.7350726,0 40.5683464,0.133334995 39.4411204,0.410597017 C38.3144839,0.68910516 37.2255788,1.10967115 36.2245172,1.7196476 L6.67728146,19.7479096 C5.67680939,20.3597553 4.78835246,21.1454348 3.99658229,22.0376578 C2.81216957,23.3778614 1.84235428,24.9591895 1.14019622,26.6483071 C0.44275458,28.3392939 0.00412687358,30.1393164 0,31.9711149 L0,68.028262 C0.00117910674,69.2500841 0.200448146,70.4563297 0.535904013,71.6264377 C1.0417408,73.3809767 1.85237669,75.0588792 2.88586374,76.5461252 C3.92288812,78.0302558 5.1786368,79.3318297 6.67728146,80.2514673 L36.2245172,98.2803524 C37.2255788,98.8897058 38.3144839,99.3108948 39.4411204,99.5887799 C40.5683464,99.8660419 41.7350726,99.9993769 42.9023882,100 C44.0691143,99.9993769 45.2358405,99.8660419 46.3630665,99.5887799 C47.489703,99.3108948 48.5780185,98.8897058 49.5796697,98.2803524 L79.1263159,80.2514673 C80.126788,79.6402447 81.0158344,78.8539421 81.8076046,77.9617191 C82.9920173,76.6221386 83.9618326,75.0408105 84.6639907,73.3516929 C85.3614323,71.6607061 85.80006,69.8600606 85.8041869,68.028262 L85.8041869,31.9711149 C85.8035974,30.7499159 85.6037388,29.5430473 85.2682829,28.3729392 L85.2682829,28.3729392 Z"/>
                    </svg>
                </mask>
            </defs>
        </svg>