<svg id="SvgjsSvg1000" xmlns="http://www.w3.org/2000/svg" version="1.1" xmlns:xlink="http://www.w3.org/1999/xlink" xmlns:svgjs="http://svgjs.com/svgjs" width="12" height="12"><defs id="SvgjsDefs1001"></defs><path id="SvgjsPath1007" d="M1121.9 147.377L1125.4577100000001 150.93471L1129.0800000000002 147.31199999999998C1129.5200000000002 146.878 1130.2200000000003 146.878 1130.65 147.31199999999998C1131.0900000000001 147.74499999999998 1131.0900000000001 148.44799999999998 1130.65 148.88199999999998L1127.02791 152.50490999999997L1130.59 156.06699999999998C1131.02 156.49599999999998 1131.02 157.19299999999998 1130.59 157.62199999999999C1130.1599999999999 158.052 1129.4599999999998 158.052 1129.03 157.62199999999999L1125.47039 154.06279999999998L1121.8799999999999 157.65399999999997C1121.4499999999998 158.08699999999996 1120.7499999999998 158.08699999999996 1120.31 157.65399999999997C1119.8799999999999 157.21999999999997 1119.8799999999999 156.51699999999997 1120.31 156.08299999999997L1123.8999999999999 152.49258999999998L1120.34 148.933C1119.9099999999999 148.504 1119.9099999999999 147.807 1120.34 147.37699999999998C1120.77 146.94799999999998 1121.47 146.94799999999998 1121.8999999999999 147.37699999999998Z " fill="#fff" transform="matrix(1,0,0,1,-1119,-146)"></path></svg>
