<?xml version="1.0" encoding="UTF-8"?>
<svg width="81px" height="44px" viewBox="0 0 81 44" version="1.1" xmlns="http://www.w3.org/2000/svg" xmlns:xlink="http://www.w3.org/1999/xlink">
    <!-- Generator: Sketch 39.1 (31720) - http://www.bohemiancoding.com/sketch -->
    <title>icons</title>
    <desc>Created with Sketch.</desc>
    <defs></defs>
    <g id="Page-1" stroke="none" stroke-width="1" fill="none" fill-rule="evenodd">
        <g id="icons">
            <path d="M10.4318062,12.7939486 C10.4318062,12.7939486 10.7747626,12.7561471 10.9501213,12.5674743 C11.111296,12.3940559 11.1061443,12.0686287 11.1061443,12.0686287 C11.1061443,12.0686287 11.0839318,10.5447945 11.7910535,10.3203943 C12.488407,10.0992055 13.3836662,11.7931128 14.3325166,12.4445024 C15.0500755,12.9372597 15.5953533,12.8294084 15.5953533,12.8294084 L18.1327352,12.7939486 C18.1327352,12.7939486 19.4600017,12.7120566 18.830624,11.6684684 C18.7791069,11.5832311 18.4639832,10.8965155 16.9439626,9.4856174 C15.3528218,8.00888455 15.5661157,8.24780323 17.4826168,5.69342738 C18.6497791,4.13781323 19.1163094,3.18816 18.9705229,2.78144293 C18.8316276,2.39392768 17.9730993,2.49629272 17.9730993,2.49629272 L15.1162448,2.51395571 C15.1162448,2.51395571 14.9042889,2.48511954 14.7473292,2.57905453 C14.5937816,2.67091545 14.4952302,2.88554751 14.4952302,2.88554751 C14.4952302,2.88554751 14.0428837,4.08924001 13.4400673,5.11309117 C12.1679308,7.27319433 11.6591832,7.38753542 11.4512416,7.25318966 C10.9674497,6.94054139 11.0883475,5.99744487 11.0883475,5.3272549 C11.0883475,3.23378938 11.4058799,2.36094339 10.4700091,2.13500433 C10.1595018,2.06007044 9.93075276,2.01049364 9.13652044,2.00239811 C8.11708502,1.99202779 7.25447553,2.00554265 6.76593334,2.24486276 C6.44090759,2.40403037 6.19014669,2.75862824 6.3429583,2.77903434 C6.53183184,2.80419072 6.95935644,2.89444591 7.18603145,3.20287915 C7.47887577,3.60129996 7.46863926,4.49568945 7.46863926,4.49568945 C7.46863926,4.49568945 7.63690599,6.96001082 7.07577159,7.26603547 C6.69073183,7.47598417 6.16244791,7.04738909 5.02826998,5.08760027 C4.44726472,4.08375378 4.00843313,2.97399626 4.00843313,2.97399626 C4.00843313,2.97399626 3.92393179,2.76665687 3.77299353,2.65566105 C3.58994074,2.52118148 3.33416194,2.47856283 3.33416194,2.47856283 L0.619280381,2.49629272 C0.619280381,2.49629272 0.211827359,2.50766662 0.0620933919,2.68489864 C-0.0711149767,2.84266124 0.0514554559,3.16855675 0.0514554559,3.16855675 C0.0514554559,3.16855675 2.17676788,8.14108934 4.58348382,10.6469589 C6.79048757,12.9447531 9.29615638,12.7939486 9.29615638,12.7939486 L10.4318062,12.7939486 Z" id="vk" fill="#000000"></path>
            <path d="M78.5436359,13.75043 L78.5436359,7.60183568 L80.6074352,7.60183568 L80.9164599,5.20561935 L78.5436359,5.20561935 L78.5436359,3.67578635 C78.5436359,2.98202646 78.7362837,2.50925216 79.7311262,2.50925216 L81,2.50869745 L81,0.365502618 C80.7805532,0.336300488 80.0273365,0.271058372 79.1510271,0.271058372 C77.3215838,0.271058372 76.0690974,1.38775249 76.0690974,3.43847517 L76.0690974,5.20561935 L74,5.20561935 L74,7.60183568 L76.0690974,7.60183568 L76.0690974,13.75043 L78.5436359,13.75043 Z" id="Facebook" fill="#000000"></path>
            <path d="M53.115161,3.05539913 C53.7932147,2.64976532 54.313494,2.00657278 54.5586077,1.24037553 C53.9237543,1.61596243 53.2222223,1.88920195 52.4727947,2.03568075 C51.8755063,1.39812207 51.0218347,1 50.0770677,1 C48.265481,1 46.7957387,2.4694836 46.7957387,4.2816901 C46.7957387,4.53896725 46.8239127,4.78873235 46.8802607,5.02910787 C44.1520807,4.89201865 41.7338147,3.5868544 40.113811,1.59906113 C39.8311323,2.08544605 39.6696013,2.64976532 39.6696013,3.2507043 C39.6696013,4.38873243 40.2490463,5.39342735 41.1299523,5.98215965 C40.5927687,5.96619727 40.085637,5.81690137 39.6423667,5.57276983 L39.6423667,5.61314555 C39.6423667,7.203756 40.7740213,8.5305165 42.2766333,8.83098582 C42.0014673,8.90798125 41.7112753,8.9464788 41.4116923,8.9464788 C41.2003873,8.9464788 40.9937783,8.92676072 40.793743,8.88826285 C41.211657,10.1915492 42.423138,11.140845 43.8600107,11.1661973 C42.736808,12.0469482 41.3205963,12.5718311 39.7832363,12.5718311 C39.518401,12.5718311 39.256383,12.5568076 39,12.5267607 C40.452838,13.456338 42.1789633,14 44.0318717,14 C50.0704937,14 53.3715443,9.00000012 53.3715443,4.66291088 C53.3715443,4.52018777 53.368727,4.37746468 53.363092,4.23755867 C54.0045197,3.77464785 54.561425,3.19718297 55,2.53896698 C54.412103,2.80000015 53.7791277,2.97652585 53.115161,3.05539913 Z" id="Twitter" fill="#000000"></path>
            <path d="M10.4318062,42.7939486 C10.4318062,42.7939486 10.7747626,42.7561471 10.9501213,42.5674743 C11.111296,42.3940559 11.1061443,42.0686287 11.1061443,42.0686287 C11.1061443,42.0686287 11.0839318,40.5447945 11.7910535,40.3203943 C12.488407,40.0992055 13.3836662,41.7931128 14.3325166,42.4445024 C15.0500755,42.9372597 15.5953533,42.8294084 15.5953533,42.8294084 L18.1327352,42.7939486 C18.1327352,42.7939486 19.4600017,42.7120566 18.830624,41.6684684 C18.7791069,41.5832311 18.4639832,40.8965155 16.9439626,39.4856174 C15.3528218,38.0088845 15.5661157,38.2478032 17.4826168,35.6934274 C18.6497791,34.1378132 19.1163094,33.18816 18.9705229,32.7814429 C18.8316276,32.3939277 17.9730993,32.4962927 17.9730993,32.4962927 L15.1162448,32.5139557 C15.1162448,32.5139557 14.9042889,32.4851195 14.7473292,32.5790545 C14.5937816,32.6709154 14.4952302,32.8855475 14.4952302,32.8855475 C14.4952302,32.8855475 14.0428837,34.08924 13.4400673,35.1130912 C12.1679308,37.2731943 11.6591832,37.3875354 11.4512416,37.2531897 C10.9674497,36.9405414 11.0883475,35.9974449 11.0883475,35.3272549 C11.0883475,33.2337894 11.4058799,32.3609434 10.4700091,32.1350043 C10.1595018,32.0600704 9.93075276,32.0104936 9.13652044,32.0023981 C8.11708502,31.9920278 7.25447553,32.0055427 6.76593334,32.2448628 C6.44090759,32.4040304 6.19014669,32.7586282 6.3429583,32.7790343 C6.53183184,32.8041907 6.95935644,32.8944459 7.18603145,33.2028792 C7.47887577,33.6013 7.46863926,34.4956895 7.46863926,34.4956895 C7.46863926,34.4956895 7.63690599,36.9600108 7.07577159,37.2660355 C6.69073183,37.4759842 6.16244791,37.0473891 5.02826998,35.0876003 C4.44726472,34.0837538 4.00843313,32.9739963 4.00843313,32.9739963 C4.00843313,32.9739963 3.92393179,32.7666569 3.77299353,32.655661 C3.58994074,32.5211815 3.33416194,32.4785628 3.33416194,32.4785628 L0.619280381,32.4962927 C0.619280381,32.4962927 0.211827359,32.5076666 0.0620933919,32.6848986 C-0.0711149767,32.8426612 0.0514554559,33.1685568 0.0514554559,33.1685568 C0.0514554559,33.1685568 2.17676788,38.1410893 4.58348382,40.6469589 C6.79048757,42.9447531 9.29615638,42.7939486 9.29615638,42.7939486 L10.4318062,42.7939486 Z" id="vk-white" fill="#FFFFFF"></path>
            <path d="M78.5436359,43.75043 L78.5436359,37.6018357 L80.6074352,37.6018357 L80.9164599,35.2056193 L78.5436359,35.2056193 L78.5436359,33.6757864 C78.5436359,32.9820265 78.7362837,32.5092522 79.7311262,32.5092522 L81,32.5086974 L81,30.3655026 C80.7805532,30.3363005 80.0273365,30.2710584 79.1510271,30.2710584 C77.3215838,30.2710584 76.0690974,31.3877525 76.0690974,33.4384752 L76.0690974,35.2056193 L74,35.2056193 L74,37.6018357 L76.0690974,37.6018357 L76.0690974,43.75043 L78.5436359,43.75043 Z" id="facebook-white" fill="#FFFFFF"></path>
            <path d="M53.115161,33.0553991 C53.7932147,32.6497653 54.313494,32.0065728 54.5586077,31.2403755 C53.9237543,31.6159624 53.2222223,31.889202 52.4727947,32.0356808 C51.8755063,31.3981221 51.0218347,31 50.0770677,31 C48.265481,31 46.7957387,32.4694836 46.7957387,34.2816901 C46.7957387,34.5389672 46.8239127,34.7887323 46.8802607,35.0291079 C44.1520807,34.8920186 41.7338147,33.5868544 40.113811,31.5990611 C39.8311323,32.0854461 39.6696013,32.6497653 39.6696013,33.2507043 C39.6696013,34.3887324 40.2490463,35.3934273 41.1299523,35.9821596 C40.5927687,35.9661973 40.085637,35.8169014 39.6423667,35.5727698 L39.6423667,35.6131456 C39.6423667,37.203756 40.7740213,38.5305165 42.2766333,38.8309858 C42.0014673,38.9079812 41.7112753,38.9464788 41.4116923,38.9464788 C41.2003873,38.9464788 40.9937783,38.9267607 40.793743,38.8882629 C41.211657,40.1915492 42.423138,41.140845 43.8600107,41.1661973 C42.736808,42.0469482 41.3205963,42.5718311 39.7832363,42.5718311 C39.518401,42.5718311 39.256383,42.5568076 39,42.5267607 C40.452838,43.456338 42.1789633,44 44.0318717,44 C50.0704937,44 53.3715443,39.0000001 53.3715443,34.6629109 C53.3715443,34.5201878 53.368727,34.3774647 53.363092,34.2375587 C54.0045197,33.7746478 54.561425,33.197183 55,32.538967 C54.412103,32.8000002 53.7791277,32.9765258 53.115161,33.0553991 Z" id="twitter-white" fill="#FFFFFF"></path>
        </g>
    </g>
</svg>