<svg viewBox="0 0 40 47" xmlns="http://www.w3.org/2000/svg" xmlns:xlink="http://www.w3.org/1999/xlink">
                    <path fill="white" d="M39.75 13.32C39.51 12.5 39.14 11.71 38.65 11.01C38.17 10.31 37.59 9.7 36.89 9.27L23.11 0.81C22.65 0.52 22.14 0.32 21.61 0.19C21.09 0.06 20.54 0 20 0C19.46 0 18.91 0.06 18.39 0.19C17.86 0.32 17.35 0.52 16.89 0.81L3.11 9.27C2.65 9.56 2.23 9.93 1.86 10.35C1.31 10.98 0.86 11.72 0.53 12.51C0.21 13.31 0 14.15 0 15.01L0 31.94C0 32.51 0.09 33.08 0.25 33.63C0.49 34.45 0.86 35.24 1.35 35.94C1.83 36.64 2.41 37.25 3.11 37.68L16.89 46.14C17.35 46.43 17.86 46.63 18.39 46.76C18.91 46.89 19.46 46.95 20 46.95C20.54 46.95 21.09 46.89 21.61 46.76C22.14 46.63 22.65 46.43 23.11 46.14L36.89 37.68C37.35 37.39 37.77 37.02 38.14 36.6C38.69 35.97 39.14 35.23 39.47 34.44C39.79 33.65 40 32.8 40 31.94L40 15.01C40 14.44 39.91 13.87 39.75 13.32Z"/>
                </svg>