<svg xmlns="http://www.w3.org/2000/svg" width="28" height="100%" viewBox="0 0 700 1100">
                        <path d="M359.3 0.4A359.7 359.7 0 0 1 719.7 361.7 358 358 0 0 1 359.3 721 357.1 357.1 0 0 1 0 361.7 358.8 358.8 0 0 1 359.3 0.4ZM359.3 590.9A230.7 230.7 0 0 0 589.5 361.7 232.3 232.3 0 0 0 359.3 130.4 231.6 231.6 0 0 0 130.1 361.7 229.8 229.8 0 0 0 359.3 590.6ZM132.6 938.1A18.2 18.2 0 0 1 130.6 914.1S203.3 814.9 280.7 814.9C323.7 814.9 353.3 836.9 381.7 855.9 401.6 869 426.7 887.9 454.3 887.9 488.3 887.9 515.3 855.9 528.4 836A18.2 18.2 0 0 1 557.5 834L599.5 877.9A18.2 18.2 0 0 1 601.5 901.9S531.3 1000 454.3 1000C406.4 1000 375.3 976.9 344.2 956.9A116.3 116.3 0 0 0 279.2 929C245.2 929 218.2 960 205.1 980A18.2 18.2 0 0 1 177.1 982C161.7 966 149.7 954 132.6 938.1Z"/>
                    Sorry, your browser does not support inline SVG.
                    </svg>